<?xml version="1.0" encoding="UTF-8" standalone="no"?>
<!-- Generator: Adobe Illustrator 18.1.0, SVG Export Plug-In . SVG Version: 6.00 Build 0)  -->

<svg
   xmlns:dc="http://purl.org/dc/elements/1.1/"
   xmlns:cc="http://creativecommons.org/ns#"
   xmlns:rdf="http://www.w3.org/1999/02/22-rdf-syntax-ns#"
   xmlns:svg="http://www.w3.org/2000/svg"
   xmlns="http://www.w3.org/2000/svg"
   xmlns:sodipodi="http://sodipodi.sourceforge.net/DTD/sodipodi-0.dtd"
   xmlns:inkscape="http://www.inkscape.org/namespaces/inkscape"
   version="1.1"
   id="Layer_1"
   x="0px"
   y="0px"
   viewBox="0 0 608 100"
   enable-background="new 0 0 608 100"
   xml:space="preserve"
   sodipodi:docname="cit-dcb-logo-2.path.svg"
   inkscape:version="0.92.3 (2405546, 2018-03-11)"><metadata
   id="metadata4009"><rdf:RDF><cc:Work
       rdf:about=""><dc:format>image/svg+xml</dc:format><dc:type
         rdf:resource="http://purl.org/dc/dcmitype/StillImage" /><dc:title /></cc:Work></rdf:RDF></metadata><defs
   id="defs4007" /><sodipodi:namedview
   pagecolor="#ffffff"
   bordercolor="#666666"
   borderopacity="1"
   objecttolerance="10"
   gridtolerance="10"
   guidetolerance="10"
   inkscape:pageopacity="0"
   inkscape:pageshadow="2"
   inkscape:window-width="1431"
   inkscape:window-height="892"
   id="namedview4005"
   showgrid="false"
   inkscape:snap-bbox="false"
   inkscape:zoom="1.6891447"
   inkscape:cx="200.46391"
   inkscape:cy="-59.719969"
   inkscape:window-x="973"
   inkscape:window-y="1051"
   inkscape:window-maximized="0"
   inkscape:current-layer="text4017" />
<g
   id="g3876">
	<g
   id="g3866">
		<path
   fill="#606060"
   d="M98,50L83,23H28.769C25.583,23,23,25.59,23,28.786v42.428C23,74.409,25.583,77,28.769,77H83L98,50z"
   id="path3862" />
		<path
   fill="#BB0E3D"
   d="M96.501,25.815C95.445,24.069,93.541,23,91.486,23h-4.485l15.201,27L87,77h4.486    c2.055,0,3.96-1.069,5.015-2.815L110,50L96.501,25.815z"
   id="path3864" />
	<path
   style="stroke-width:0.59201556;fill:#004e8b;fill-opacity:1"
   d="m 88.042851,75.912409 c 0.170318,-0.443841 3.497632,-6.456582 7.394032,-13.361648 L 102.52125,49.996096 95.190553,37.001492 c -4.03188,-7.147032 -7.330692,-13.122606 -7.330692,-13.279054 0,-0.156447 1.302522,-0.284449 2.894492,-0.284449 1.902406,0 3.307981,0.355098 4.100879,1.036027 0.663513,0.569815 4.281274,6.545018 8.039468,13.27823 l 6.83309,12.242203 -6.15181,10.973144 c -8.303417,14.81103 -8.03041,14.382493 -9.625654,15.109336 -2.111862,0.962228 -6.295143,0.845726 -5.907475,-0.16452 z"
   id="path4019"
   inkscape:connector-curvature="0" /><path
   style="fill:#004e8b;fill-opacity:1;stroke-width:0.59201556"
   d="m 88.986087,76.200846 c -0.46391,-0.750621 0.1938,-2.059952 7.866489,-15.660144 L 102.80703,49.98616 95.64644,37.265097 c -4.792192,-8.513516 -6.964016,-12.917635 -6.566274,-13.315378 0.585425,-0.585424 4.069393,-0.211235 5.303578,0.569621 0.790713,0.500275 5.825736,8.831538 11.059626,18.29996 l 4.00484,7.244992 -5.7519,10.219468 c -6.61087,11.745632 -8.059698,14.117457 -9.198969,15.05931 -1.212953,1.002768 -5.05233,1.600332 -5.511254,0.857776 z"
   id="path4826"
   inkscape:connector-curvature="0" /></g>
	<g
   id="g3874">
		<rect
   x="55"
   y="38"
   fill="#FFFFFF"
   width="4"
   height="24"
   id="rect3868" />
		<polygon
   fill="#FFFFFF"
   points="47,38 47,55.6 36,38 32,38 32,62 36,62 36,44.4 47,62 51,62 51,38   "
   id="polygon3870" />
		<polygon
   fill="#FFFFFF"
   points="78,38 78,48 67,48 67,38 63,38 63,62 67,62 67,52 78,52 78,62 82,62 82,38   "
   id="polygon3872" />
	</g>
</g>


<g
   aria-label="Center for Information Technology"
   style="font-style:normal;font-variant:normal;font-weight:normal;font-stretch:normal;font-size:40px;line-height:1.25;font-family:Montserrat;-inkscape-font-specification:Montserrat;letter-spacing:0px;word-spacing:0px;fill:#004e8b;fill-opacity:1;stroke:none"
   id="text4013"><path
     d="m 131.68852,42.787823 c 2.45333,0 4.544,-0.874667 5.93067,-2.496 l -1.792,-1.706667 c -1.088,1.194667 -2.432,1.770667 -3.98934,1.770667 -3.09333,0 -5.33333,-2.176 -5.33333,-5.248 0,-3.072 2.24,-5.248 5.33333,-5.248 1.55734,0 2.90134,0.576 3.98934,1.749333 l 1.792,-1.685333 c -1.38667,-1.621334 -3.47734,-2.496001 -5.90934,-2.496001 -4.58666,0 -8,3.221334 -8,7.680001 0,4.458667 3.41334,7.68 7.97867,7.68 z"
     style="font-style:normal;font-variant:normal;font-weight:600;font-stretch:normal;font-size:21.33333397px;font-family:Montserrat;-inkscape-font-specification:'Montserrat Semi-Bold';fill:#606060;fill-opacity:1"
     id="path2343" /><path
     d="m 150.31319,36.942489 c 0,-3.562666 -2.432,-5.888 -5.76,-5.888 -3.392,0 -5.888,2.432 -5.888,5.824 0,3.392001 2.47466,5.845334 6.29333,5.845334 1.96267,0 3.56267,-0.64 4.58667,-1.856 l -1.42934,-1.642667 c -0.81066,0.832 -1.81333,1.237334 -3.09333,1.237334 -1.984,0 -3.37067,-1.066667 -3.69067,-2.730667 h 8.93867 c 0.0213,-0.256 0.0427,-0.576 0.0427,-0.789334 z m -5.76,-3.754666 c 1.74933,0 3.008,1.130666 3.22133,2.773333 h -6.464 c 0.256,-1.664 1.51467,-2.773333 3.24267,-2.773333 z"
     style="font-style:normal;font-variant:normal;font-weight:600;font-stretch:normal;font-size:21.33333397px;font-family:Montserrat;-inkscape-font-specification:'Montserrat Semi-Bold';fill:#606060;fill-opacity:1"
     id="path2345" /><path
     d="m 159.31785,31.054489 c -1.664,0 -3.05066,0.554667 -3.92533,1.6 v -1.472 h -2.53867 V 42.57449 h 2.66667 v -5.760001 c 0,-2.282666 1.28,-3.434666 3.17867,-3.434666 1.70666,0 2.70933,0.981333 2.70933,3.008 v 6.186667 h 2.66667 v -6.528001 c 0,-3.434666 -2.02667,-4.992 -4.75734,-4.992 z"
     style="font-style:normal;font-variant:normal;font-weight:600;font-stretch:normal;font-size:21.33333397px;font-family:Montserrat;-inkscape-font-specification:'Montserrat Semi-Bold';fill:#606060;fill-opacity:1"
     id="path2347" /><path
     d="m 173.58019,40.057156 c -0.40533,0.32 -0.93867,0.469334 -1.49333,0.469334 -1.024,0 -1.57867,-0.597334 -1.57867,-1.706667 v -5.418667 h 3.05067 v -2.133333 h -3.05067 v -2.602667 h -2.66667 v 2.602667 h -1.87733 v 2.133333 h 1.87733 v 5.482667 c 0,2.517333 1.42934,3.84 3.92534,3.84 0.96,0 1.92,-0.256 2.56,-0.768 z"
     style="font-style:normal;font-variant:normal;font-weight:600;font-stretch:normal;font-size:21.33333397px;font-family:Montserrat;-inkscape-font-specification:'Montserrat Semi-Bold';fill:#606060;fill-opacity:1"
     id="path2349" /><path
     d="m 186.85485,36.942489 c 0,-3.562666 -2.432,-5.888 -5.76,-5.888 -3.392,0 -5.888,2.432 -5.888,5.824 0,3.392001 2.47467,5.845334 6.29334,5.845334 1.96266,0 3.56266,-0.64 4.58666,-1.856 l -1.42933,-1.642667 c -0.81067,0.832 -1.81333,1.237334 -3.09333,1.237334 -1.984,0 -3.37067,-1.066667 -3.69067,-2.730667 h 8.93867 c 0.0213,-0.256 0.0427,-0.576 0.0427,-0.789334 z m -5.76,-3.754666 c 1.74934,0 3.008,1.130666 3.22134,2.773333 h -6.464 c 0.256,-1.664 1.51466,-2.773333 3.24266,-2.773333 z"
     style="font-style:normal;font-variant:normal;font-weight:600;font-stretch:normal;font-size:21.33333397px;font-family:Montserrat;-inkscape-font-specification:'Montserrat Semi-Bold';fill:#606060;fill-opacity:1"
     id="path2351" /><path
     d="m 191.93419,32.846489 v -1.664 h -2.53867 V 42.57449 h 2.66667 v -5.525334 c 0,-2.325333 1.28,-3.52 3.30666,-3.52 0.192,0 0.384,0.02133 0.61867,0.064 v -2.538667 c -1.89867,0 -3.28533,0.597334 -4.05333,1.792 z"
     style="font-style:normal;font-variant:normal;font-weight:600;font-stretch:normal;font-size:21.33333397px;font-family:Montserrat;-inkscape-font-specification:'Montserrat Semi-Bold';fill:#606060;fill-opacity:1"
     id="path2353" /><path
     d="m 208.85819,28.750489 c 0.55467,0 1.06667,0.192 1.472,0.469334 l 0.74667,-2.005334 c -0.59734,-0.426667 -1.49334,-0.618667 -2.41067,-0.618667 -2.64533,0 -4.07467,1.557334 -4.07467,3.946667 v 0.725334 h -1.87733 v 2.133333 h 1.87733 v 9.173334 h 2.66667 v -9.173334 h 3.05067 v -2.133333 h -3.136 v -0.682667 c 0,-1.216 0.576,-1.834667 1.68533,-1.834667 z"
     style="font-style:normal;font-variant:normal;font-weight:600;font-stretch:normal;font-size:21.33333397px;font-family:Montserrat;-inkscape-font-specification:'Montserrat Semi-Bold';fill:#606060;fill-opacity:1"
     id="path2355" /><path
     d="m 217.05719,42.723823 c 3.54134,0 6.08,-2.432 6.08,-5.845334 0,-3.413333 -2.53866,-5.824 -6.08,-5.824 -3.49866,0 -6.05866,2.410667 -6.05866,5.824 0,3.413334 2.56,5.845334 6.05866,5.845334 z m 0,-2.282667 c -1.92,0 -3.37066,-1.386667 -3.37066,-3.562667 0,-2.176 1.45066,-3.562666 3.37066,-3.562666 1.94134,0 3.392,1.386666 3.392,3.562666 0,2.176 -1.45066,3.562667 -3.392,3.562667 z"
     style="font-style:normal;font-variant:normal;font-weight:600;font-stretch:normal;font-size:21.33333397px;font-family:Montserrat;-inkscape-font-specification:'Montserrat Semi-Bold';fill:#606060;fill-opacity:1"
     id="path2357" /><path
     d="m 228.22586,32.846489 v -1.664 h -2.53867 V 42.57449 h 2.66667 v -5.525334 c 0,-2.325333 1.28,-3.52 3.30667,-3.52 0.192,0 0.384,0.02133 0.61866,0.064 v -2.538667 c -1.89866,0 -3.28533,0.597334 -4.05333,1.792 z"
     style="font-style:normal;font-variant:normal;font-weight:600;font-stretch:normal;font-size:21.33333397px;font-family:Montserrat;-inkscape-font-specification:'Montserrat Semi-Bold';fill:#606060;fill-opacity:1"
     id="path2359" /><path
     d="m 240.77652,42.57449 h 2.77333 V 27.641156 h -2.77333 z"
     style="font-style:normal;font-variant:normal;font-weight:600;font-stretch:normal;font-size:21.33333397px;font-family:Montserrat;-inkscape-font-specification:'Montserrat Semi-Bold';fill:#606060;fill-opacity:1"
     id="path2361" /><path
     d="m 253.77619,31.054489 c -1.664,0 -3.05066,0.554667 -3.92533,1.6 v -1.472 h -2.53867 V 42.57449 h 2.66667 v -5.760001 c 0,-2.282666 1.28,-3.434666 3.17867,-3.434666 1.70666,0 2.70933,0.981333 2.70933,3.008 v 6.186667 h 2.66667 v -6.528001 c 0,-3.434666 -2.02667,-4.992 -4.75734,-4.992 z"
     style="font-style:normal;font-variant:normal;font-weight:600;font-stretch:normal;font-size:21.33333397px;font-family:Montserrat;-inkscape-font-specification:'Montserrat Semi-Bold';fill:#606060;fill-opacity:1"
     id="path2363" /><path
     d="m 266.56653,28.750489 c 0.55466,0 1.06666,0.192 1.472,0.469334 l 0.74666,-2.005334 c -0.59733,-0.426667 -1.49333,-0.618667 -2.41066,-0.618667 -2.64534,0 -4.07467,1.557334 -4.07467,3.946667 v 0.725334 h -1.87733 v 2.133333 h 1.87733 v 9.173334 h 2.66667 v -9.173334 h 3.05066 v -2.133333 h -3.136 v -0.682667 c 0,-1.216 0.576,-1.834667 1.68534,-1.834667 z"
     style="font-style:normal;font-variant:normal;font-weight:600;font-stretch:normal;font-size:21.33333397px;font-family:Montserrat;-inkscape-font-specification:'Montserrat Semi-Bold';fill:#606060;fill-opacity:1"
     id="path2365" /><path
     d="m 274.76552,42.723823 c 3.54133,0 6.08,-2.432 6.08,-5.845334 0,-3.413333 -2.53867,-5.824 -6.08,-5.824 -3.49867,0 -6.05867,2.410667 -6.05867,5.824 0,3.413334 2.56,5.845334 6.05867,5.845334 z m 0,-2.282667 c -1.92,0 -3.37067,-1.386667 -3.37067,-3.562667 0,-2.176 1.45067,-3.562666 3.37067,-3.562666 1.94133,0 3.392,1.386666 3.392,3.562666 0,2.176 -1.45067,3.562667 -3.392,3.562667 z"
     style="font-style:normal;font-variant:normal;font-weight:600;font-stretch:normal;font-size:21.33333397px;font-family:Montserrat;-inkscape-font-specification:'Montserrat Semi-Bold';fill:#606060;fill-opacity:1"
     id="path2367" /><path
     d="m 285.93419,32.846489 v -1.664 h -2.53867 V 42.57449 h 2.66667 v -5.525334 c 0,-2.325333 1.28,-3.52 3.30666,-3.52 0.192,0 0.384,0.02133 0.61867,0.064 v -2.538667 c -1.89867,0 -3.28533,0.597334 -4.05333,1.792 z"
     style="font-style:normal;font-variant:normal;font-weight:600;font-stretch:normal;font-size:21.33333397px;font-family:Montserrat;-inkscape-font-specification:'Montserrat Semi-Bold';fill:#606060;fill-opacity:1"
     id="path2369" /><path
     d="m 306.60753,31.054489 c -1.81333,0 -3.34933,0.725334 -4.26667,1.898667 -0.78933,-1.28 -2.176,-1.898667 -3.84,-1.898667 -1.55733,0 -2.88,0.554667 -3.73333,1.578667 v -1.450667 h -2.53867 V 42.57449 h 2.66667 v -5.781334 c 0,-2.261333 1.19467,-3.413333 2.96533,-3.413333 1.62134,0 2.56,0.981333 2.56,3.008 v 6.186667 h 2.66667 v -5.781334 c 0,-2.261333 1.216,-3.413333 2.96533,-3.413333 1.62134,0 2.56,0.981333 2.56,3.008 v 6.186667 h 2.66667 v -6.528001 c 0,-3.434666 -1.92,-4.992 -4.672,-4.992 z"
     style="font-style:normal;font-variant:normal;font-weight:600;font-stretch:normal;font-size:21.33333397px;font-family:Montserrat;-inkscape-font-specification:'Montserrat Semi-Bold';fill:#606060;fill-opacity:1"
     id="path2371" /><path
     d="m 319.03919,31.054489 c -1.83466,0 -3.60533,0.469334 -4.82133,1.408 l 1.04533,1.941334 c 0.85334,-0.704 2.176,-1.130667 3.456,-1.130667 1.89867,0 2.83734,0.917333 2.83734,2.474667 v 0.170666 h -2.944 c -3.456,0 -4.736,1.493334 -4.736,3.392 0,1.984001 1.64266,3.413334 4.24533,3.413334 1.70667,0 2.944,-0.554667 3.584,-1.536 v 1.386667 h 2.51733 v -6.677334 c 0,-3.285333 -1.89866,-4.842667 -5.184,-4.842667 z m -0.36266,9.728001 c -1.36534,0 -2.176,-0.618667 -2.176,-1.578667 0,-0.832 0.49066,-1.514667 2.304,-1.514667 h 2.752 v 1.322667 c -0.448,1.173333 -1.57867,1.770667 -2.88,1.770667 z"
     style="font-style:normal;font-variant:normal;font-weight:600;font-stretch:normal;font-size:21.33333397px;font-family:Montserrat;-inkscape-font-specification:'Montserrat Semi-Bold';fill:#606060;fill-opacity:1"
     id="path2373" /><path
     d="m 333.74685,40.057156 c -0.40533,0.32 -0.93866,0.469334 -1.49333,0.469334 -1.024,0 -1.57867,-0.597334 -1.57867,-1.706667 v -5.418667 h 3.05067 v -2.133333 h -3.05067 v -2.602667 h -2.66666 v 2.602667 h -1.87734 v 2.133333 h 1.87734 v 5.482667 c 0,2.517333 1.42933,3.84 3.92533,3.84 0.96,0 1.92,-0.256 2.56,-0.768 z"
     style="font-style:normal;font-variant:normal;font-weight:600;font-stretch:normal;font-size:21.33333397px;font-family:Montserrat;-inkscape-font-specification:'Montserrat Semi-Bold';fill:#606060;fill-opacity:1"
     id="path2375" /><path
     d="m 338.03119,29.305156 c 1.00267,0 1.70667,-0.725333 1.70667,-1.664 0,-0.874667 -0.72533,-1.536 -1.70667,-1.536 -0.98133,0 -1.70666,0.704 -1.70666,1.6 0,0.896 0.72533,1.6 1.70666,1.6 z m -1.344,13.269334 h 2.66667 V 31.182489 h -2.66667 z"
     style="font-style:normal;font-variant:normal;font-weight:600;font-stretch:normal;font-size:21.33333397px;font-family:Montserrat;-inkscape-font-specification:'Montserrat Semi-Bold';fill:#606060;fill-opacity:1"
     id="path2377" /><path
     d="m 347.97386,42.723823 c 3.54134,0 6.08,-2.432 6.08,-5.845334 0,-3.413333 -2.53866,-5.824 -6.08,-5.824 -3.49866,0 -6.05866,2.410667 -6.05866,5.824 0,3.413334 2.56,5.845334 6.05866,5.845334 z m 0,-2.282667 c -1.92,0 -3.37066,-1.386667 -3.37066,-3.562667 0,-2.176 1.45066,-3.562666 3.37066,-3.562666 1.94134,0 3.392,1.386666 3.392,3.562666 0,2.176 -1.45066,3.562667 -3.392,3.562667 z"
     style="font-style:normal;font-variant:normal;font-weight:600;font-stretch:normal;font-size:21.33333397px;font-family:Montserrat;-inkscape-font-specification:'Montserrat Semi-Bold';fill:#606060;fill-opacity:1"
     id="path2379" /><path
     d="m 363.06786,31.054489 c -1.664,0 -3.05066,0.554667 -3.92533,1.6 v -1.472 h -2.53867 V 42.57449 h 2.66667 v -5.760001 c 0,-2.282666 1.28,-3.434666 3.17867,-3.434666 1.70666,0 2.70933,0.981333 2.70933,3.008 v 6.186667 h 2.66667 v -6.528001 c 0,-3.434666 -2.02667,-4.992 -4.75734,-4.992 z"
     style="font-style:normal;font-variant:normal;font-weight:600;font-stretch:normal;font-size:21.33333397px;font-family:Montserrat;-inkscape-font-specification:'Montserrat Semi-Bold';fill:#606060;fill-opacity:1"
     id="path2381" /><path
     d="m 380.3892,42.57449 h 2.77333 V 29.987823 h 4.94933 v -2.346667 h -12.672 v 2.346667 h 4.94934 z"
     style="font-style:normal;font-variant:normal;font-weight:600;font-stretch:normal;font-size:21.33333397px;font-family:Montserrat;-inkscape-font-specification:'Montserrat Semi-Bold';fill:#606060;fill-opacity:1"
     id="path2383" /><path
     d="m 399.47985,36.942489 c 0,-3.562666 -2.432,-5.888 -5.76,-5.888 -3.392,0 -5.888,2.432 -5.888,5.824 0,3.392001 2.47467,5.845334 6.29334,5.845334 1.96266,0 3.56266,-0.64 4.58666,-1.856 l -1.42933,-1.642667 c -0.81067,0.832 -1.81333,1.237334 -3.09333,1.237334 -1.984,0 -3.37067,-1.066667 -3.69067,-2.730667 h 8.93867 c 0.0213,-0.256 0.0427,-0.576 0.0427,-0.789334 z m -5.76,-3.754666 c 1.74934,0 3.008,1.130666 3.22134,2.773333 h -6.464 c 0.256,-1.664 1.51466,-2.773333 3.24266,-2.773333 z"
     style="font-style:normal;font-variant:normal;font-weight:600;font-stretch:normal;font-size:21.33333397px;font-family:Montserrat;-inkscape-font-specification:'Montserrat Semi-Bold';fill:#606060;fill-opacity:1"
     id="path2385" /><path
     d="m 407.24719,42.723823 c 2.21866,0 3.98933,-0.96 4.864,-2.666667 l -2.048,-1.194667 c -0.68267,1.088001 -1.70667,1.578667 -2.83734,1.578667 -1.96266,0 -3.456,-1.344 -3.456,-3.562667 0,-2.197333 1.49334,-3.562666 3.456,-3.562666 1.13067,0 2.15467,0.490666 2.83734,1.578666 l 2.048,-1.194666 c -0.87467,-1.728 -2.64534,-2.645334 -4.864,-2.645334 -3.60534,0 -6.16534,2.410667 -6.16534,5.824 0,3.413334 2.56,5.845334 6.16534,5.845334 z"
     style="font-style:normal;font-variant:normal;font-weight:600;font-stretch:normal;font-size:21.33333397px;font-family:Montserrat;-inkscape-font-specification:'Montserrat Semi-Bold';fill:#606060;fill-opacity:1"
     id="path2387" /><path
     d="m 420.73452,31.054489 c -1.57867,0 -2.92267,0.512 -3.79733,1.450667 v -5.76 h -2.66667 V 42.57449 h 2.66667 v -5.760001 c 0,-2.282666 1.28,-3.434666 3.17866,-3.434666 1.70667,0 2.70934,0.981333 2.70934,3.008 v 6.186667 h 2.66666 v -6.528001 c 0,-3.434666 -2.02666,-4.992 -4.75733,-4.992 z"
     style="font-style:normal;font-variant:normal;font-weight:600;font-stretch:normal;font-size:21.33333397px;font-family:Montserrat;-inkscape-font-specification:'Montserrat Semi-Bold';fill:#606060;fill-opacity:1"
     id="path2389" /><path
     d="m 435.35952,31.054489 c -1.664,0 -3.05067,0.554667 -3.92533,1.6 v -1.472 h -2.53867 V 42.57449 h 2.66667 v -5.760001 c 0,-2.282666 1.28,-3.434666 3.17866,-3.434666 1.70667,0 2.70934,0.981333 2.70934,3.008 v 6.186667 h 2.66666 v -6.528001 c 0,-3.434666 -2.02666,-4.992 -4.75733,-4.992 z"
     style="font-style:normal;font-variant:normal;font-weight:600;font-stretch:normal;font-size:21.33333397px;font-family:Montserrat;-inkscape-font-specification:'Montserrat Semi-Bold';fill:#606060;fill-opacity:1"
     id="path2391" /><path
     d="m 448.76552,42.723823 c 3.54133,0 6.08,-2.432 6.08,-5.845334 0,-3.413333 -2.53867,-5.824 -6.08,-5.824 -3.49867,0 -6.05867,2.410667 -6.05867,5.824 0,3.413334 2.56,5.845334 6.05867,5.845334 z m 0,-2.282667 c -1.92,0 -3.37067,-1.386667 -3.37067,-3.562667 0,-2.176 1.45067,-3.562666 3.37067,-3.562666 1.94133,0 3.392,1.386666 3.392,3.562666 0,2.176 -1.45067,3.562667 -3.392,3.562667 z"
     style="font-style:normal;font-variant:normal;font-weight:600;font-stretch:normal;font-size:21.33333397px;font-family:Montserrat;-inkscape-font-specification:'Montserrat Semi-Bold';fill:#606060;fill-opacity:1"
     id="path2393" /><path
     d="m 457.39552,42.57449 h 2.66667 V 26.745156 h -2.66667 z"
     style="font-style:normal;font-variant:normal;font-weight:600;font-stretch:normal;font-size:21.33333397px;font-family:Montserrat;-inkscape-font-specification:'Montserrat Semi-Bold';fill:#606060;fill-opacity:1"
     id="path2395" /><path
     d="m 468.68221,42.723823 c 3.54133,0 6.08,-2.432 6.08,-5.845334 0,-3.413333 -2.53867,-5.824 -6.08,-5.824 -3.49867,0 -6.05867,2.410667 -6.05867,5.824 0,3.413334 2.56,5.845334 6.05867,5.845334 z m 0,-2.282667 c -1.92,0 -3.37067,-1.386667 -3.37067,-3.562667 0,-2.176 1.45067,-3.562666 3.37067,-3.562666 1.94133,0 3.392,1.386666 3.392,3.562666 0,2.176 -1.45067,3.562667 -3.392,3.562667 z"
     style="font-style:normal;font-variant:normal;font-weight:600;font-stretch:normal;font-size:21.33333397px;font-family:Montserrat;-inkscape-font-specification:'Montserrat Semi-Bold';fill:#606060;fill-opacity:1"
     id="path2397" /><path
     d="m 486.08021,31.182489 v 1.514667 c -0.93867,-1.130667 -2.34667,-1.642667 -3.94667,-1.642667 -3.264,0 -5.76,2.176 -5.76,5.482667 0,3.306667 2.496,5.525334 5.76,5.525334 1.536,0 2.88,-0.490667 3.81867,-1.514667 v 0.597333 c 0,2.304 -1.10934,3.456 -3.62667,3.456 -1.57867,0 -3.2,-0.533333 -4.20267,-1.365333 l -1.19466,2.005333 c 1.30133,1.066667 3.41333,1.621334 5.54666,1.621334 3.98934,0 6.144,-1.877334 6.144,-6.016 v -9.664001 z m -3.54134,8.618667 c -2.02666,0 -3.47733,-1.322667 -3.47733,-3.264 0,-1.92 1.45067,-3.221333 3.47733,-3.221333 2.00534,0 3.456,1.301333 3.456,3.221333 0,1.941333 -1.45066,3.264 -3.456,3.264 z"
     style="font-style:normal;font-variant:normal;font-weight:600;font-stretch:normal;font-size:21.33333397px;font-family:Montserrat;-inkscape-font-specification:'Montserrat Semi-Bold';fill:#606060;fill-opacity:1"
     id="path2399" /><path
     d="m 500.21053,31.182489 -3.60533,8.426667 -3.584,-8.426667 h -2.77334 l 4.97067,11.434667 -0.192,0.448 c -0.512,1.130667 -1.06667,1.578667 -2.00533,1.578667 -0.72534,0 -1.45067,-0.298667 -1.96267,-0.789333 l -1.06667,1.962666 c 0.72534,0.661334 1.92,1.045334 3.05067,1.045334 1.89867,0 3.34933,-0.789334 4.39467,-3.370667 l 5.33333,-12.309334 z"
     style="font-style:normal;font-variant:normal;font-weight:600;font-stretch:normal;font-size:21.33333397px;font-family:Montserrat;-inkscape-font-specification:'Montserrat Semi-Bold';fill:#606060;fill-opacity:1"
     id="path2401" /></g>

<g
   aria-label="Division of Computational Biosciences"
   style="font-style:normal;font-weight:normal;font-size:40px;line-height:1.25;font-family:sans-serif;letter-spacing:0px;word-spacing:0px;fill:#606060;fill-opacity:1;stroke:none"
   id="text4017"><path
     d="m 122.98767,68.122002 h 5.668 c 4.524,0 7.55733,-2.825334 7.55733,-7.124001 0,-3.050666 -2.20133,-5.009333 -5.89333,-5.009333 h -4.90534 z m 2.63466,-1.906667 1.664,-8.32 h 2.79067 c 2.56533,0 3.86533,1.248 3.86533,3.241333 0,2.912 -1.95866,5.078667 -5.21733,5.078667 z"
     style="font-style:italic;font-variant:normal;font-weight:600;font-stretch:normal;font-size:17.33333397px;font-family:Montserrat;-inkscape-font-specification:'Montserrat Semi-Bold Italic';fill:#606060;fill-opacity:1"
     id="path2404" /><path
     d="m 140.51465,57.340668 c 0.884,0 1.47333,-0.589333 1.47333,-1.438667 0,-0.641333 -0.52,-1.161333 -1.3,-1.161333 -0.884,0 -1.47333,0.606667 -1.47333,1.386667 0,0.658666 0.52,1.213333 1.3,1.213333 z m -3.41467,10.781334 h 2.16667 l 1.83733,-9.256001 h -2.16667 z"
     style="font-style:italic;font-variant:normal;font-weight:600;font-stretch:normal;font-size:17.33333397px;font-family:Montserrat;-inkscape-font-specification:'Montserrat Semi-Bold Italic';fill:#606060;fill-opacity:1"
     id="path2406" /><path
     d="m 150.44773,58.866001 -4.316,6.881334 -1.54267,-6.881334 h -2.132 l 2.132,9.256001 h 2.236 l 5.80667,-9.256001 z"
     style="font-style:italic;font-variant:normal;font-weight:600;font-stretch:normal;font-size:17.33333397px;font-family:Montserrat;-inkscape-font-specification:'Montserrat Semi-Bold Italic';fill:#606060;fill-opacity:1"
     id="path2408" /><path
     d="m 155.5459,57.340668 c 0.884,0 1.47333,-0.589333 1.47333,-1.438667 0,-0.641333 -0.52,-1.161333 -1.3,-1.161333 -0.884,0 -1.47333,0.606667 -1.47333,1.386667 0,0.658666 0.52,1.213333 1.3,1.213333 z m -3.41467,10.781334 h 2.16667 l 1.83733,-9.256001 h -2.16667 z"
     style="font-style:italic;font-variant:normal;font-weight:600;font-stretch:normal;font-size:17.33333397px;font-family:Montserrat;-inkscape-font-specification:'Montserrat Semi-Bold Italic';fill:#606060;fill-opacity:1"
     id="path2410" /><path
     d="m 160.29631,68.243335 c 2.6,0 4.43734,-1.092 4.43734,-3.12 0,-3.085334 -5.00934,-1.889334 -5.00934,-3.484 0,-0.641334 0.676,-1.126667 2.08,-1.126667 0.90134,0 1.924,0.190667 2.73867,0.710667 l 0.79733,-1.664 c -0.78,-0.502667 -2.08,-0.797334 -3.328,-0.797334 -2.63466,0 -4.40266,1.178667 -4.40266,3.12 0,3.137334 5.00933,1.958667 5.00933,3.484001 0,0.693333 -0.676,1.109333 -2.09733,1.109333 -1.23067,0 -2.47867,-0.364 -3.224,-0.901333 l -0.90134,1.664 c 0.76267,0.572 2.288,1.005333 3.9,1.005333 z"
     style="font-style:italic;font-variant:normal;font-weight:600;font-stretch:normal;font-size:17.33333397px;font-family:Montserrat;-inkscape-font-specification:'Montserrat Semi-Bold Italic';fill:#606060;fill-opacity:1"
     id="path2412" /><path
     d="m 169.49381,57.340668 c 0.884,0 1.47334,-0.589333 1.47334,-1.438667 0,-0.641333 -0.52,-1.161333 -1.3,-1.161333 -0.884,0 -1.47334,0.606667 -1.47334,1.386667 0,0.658666 0.52,1.213333 1.3,1.213333 z m -3.41466,10.781334 h 2.16666 l 1.83734,-9.256001 h -2.16667 z"
     style="font-style:italic;font-variant:normal;font-weight:600;font-stretch:normal;font-size:17.33333397px;font-family:Montserrat;-inkscape-font-specification:'Montserrat Semi-Bold Italic';fill:#606060;fill-opacity:1"
     id="path2414" /><path
     d="m 175.66557,68.243335 c 3.20666,0 5.512,-2.322667 5.512,-5.425334 0,-2.461333 -1.768,-4.056 -4.50667,-4.056 -3.20667,0 -5.49467,2.305334 -5.49467,5.408001 0,2.444 1.768,4.073333 4.48934,4.073333 z m 0.13866,-1.854667 c -1.56,0 -2.444,-0.884 -2.444,-2.322667 0,-2.045333 1.352,-3.466666 3.18934,-3.466666 1.56,0 2.444,0.884 2.444,2.322666 0,2.045334 -1.352,3.466667 -3.18934,3.466667 z"
     style="font-style:italic;font-variant:normal;font-weight:600;font-stretch:normal;font-size:17.33333397px;font-family:Montserrat;-inkscape-font-specification:'Montserrat Semi-Bold Italic';fill:#606060;fill-opacity:1"
     id="path2416" /><path
     d="m 189.14277,58.762001 c -1.23066,0 -2.34,0.364 -3.18933,1.126667 l 0.208,-1.022667 h -2.06267 l -1.83733,9.256001 h 2.16667 l 0.97066,-4.801334 c 0.364,-1.802667 1.456,-2.669333 3.03334,-2.669333 1.26533,0 1.85466,0.606666 1.85466,1.681333 0,0.208 -0.0173,0.450667 -0.0693,0.710667 l -1.00533,5.078667 h 2.16666 l 1.02267,-5.130667 c 0.0693,-0.398667 0.12133,-0.762667 0.12133,-1.109334 0,-2.028 -1.33466,-3.12 -3.38,-3.12 z"
     style="font-style:italic;font-variant:normal;font-weight:600;font-stretch:normal;font-size:17.33333397px;font-family:Montserrat;-inkscape-font-specification:'Montserrat Semi-Bold Italic';fill:#606060;fill-opacity:1"
     id="path2418" /><path
     d="m 203.49369,68.243335 c 3.20667,0 5.512,-2.322667 5.512,-5.425334 0,-2.461333 -1.768,-4.056 -4.50667,-4.056 -3.20666,0 -5.49466,2.305334 -5.49466,5.408001 0,2.444 1.768,4.073333 4.48933,4.073333 z m 0.13867,-1.854667 c -1.56,0 -2.444,-0.884 -2.444,-2.322667 0,-2.045333 1.352,-3.466666 3.18933,-3.466666 1.56,0 2.444,0.884 2.444,2.322666 0,2.045334 -1.352,3.466667 -3.18933,3.466667 z"
     style="font-style:italic;font-variant:normal;font-weight:600;font-stretch:normal;font-size:17.33333397px;font-family:Montserrat;-inkscape-font-specification:'Montserrat Semi-Bold Italic';fill:#606060;fill-opacity:1"
     id="path2420" /><path
     d="m 216.06957,56.890001 c 0.468,0 0.84933,0.138667 1.144,0.381334 l 0.884,-1.577334 c -0.48534,-0.364 -1.23067,-0.554666 -2.028,-0.554666 -2.08,0 -3.328,1.196 -3.72667,3.137333 l -0.13867,0.658667 h -1.508 l -0.34666,1.733333 h 1.508 l -1.49067,7.453334 h 2.16667 l 1.49066,-7.453334 h 2.47867 l 0.34667,-1.733333 h -2.53067 l 0.104,-0.502667 c 0.22533,-1.04 0.728,-1.542667 1.64667,-1.542667 z"
     style="font-style:italic;font-variant:normal;font-weight:600;font-stretch:normal;font-size:17.33333397px;font-family:Montserrat;-inkscape-font-specification:'Montserrat Semi-Bold Italic';fill:#606060;fill-opacity:1"
     id="path2422" /><path
     d="m 227.62277,68.295335 c 2.01067,0 3.76134,-0.606667 4.94,-1.958667 l -1.31733,-1.421333 c -0.91867,0.953333 -2.09733,1.404 -3.44933,1.404 -2.47867,0 -3.796,-1.334667 -3.796,-3.345334 0,-2.842666 1.94133,-5.182666 5.044,-5.182666 1.43866,0 2.47866,0.502666 3.13733,1.421333 l 1.62933,-1.369333 c -0.84933,-1.317334 -2.53066,-2.028 -4.61066,-2.028 -4.50667,0 -7.47067,3.189333 -7.47067,7.297333 0,3.068 2.20133,5.182667 5.89333,5.182667 z"
     style="font-style:italic;font-variant:normal;font-weight:600;font-stretch:normal;font-size:17.33333397px;font-family:Montserrat;-inkscape-font-specification:'Montserrat Semi-Bold Italic';fill:#606060;fill-opacity:1"
     id="path2424" /><path
     d="m 238.09265,68.243335 c 3.20667,0 5.512,-2.322667 5.512,-5.425334 0,-2.461333 -1.768,-4.056 -4.50667,-4.056 -3.20666,0 -5.49466,2.305334 -5.49466,5.408001 0,2.444 1.768,4.073333 4.48933,4.073333 z m 0.13867,-1.854667 c -1.56,0 -2.444,-0.884 -2.444,-2.322667 0,-2.045333 1.352,-3.466666 3.18933,-3.466666 1.56,0 2.444,0.884 2.444,2.322666 0,2.045334 -1.352,3.466667 -3.18933,3.466667 z"
     style="font-style:italic;font-variant:normal;font-weight:600;font-stretch:normal;font-size:17.33333397px;font-family:Montserrat;-inkscape-font-specification:'Montserrat Semi-Bold Italic';fill:#606060;fill-opacity:1"
     id="path2426" /><path
     d="m 257.96586,58.762001 c -1.49067,0 -2.72133,0.52 -3.65733,1.525334 -0.50267,-1.005334 -1.54267,-1.525334 -2.87734,-1.525334 -1.16133,0 -2.21866,0.346667 -3.03333,1.109334 l 0.19067,-1.005334 h -2.06267 l -1.83733,9.256001 h 2.16666 l 0.97067,-4.801334 c 0.364,-1.82 1.352,-2.669333 2.84267,-2.669333 1.196,0 1.768,0.589333 1.768,1.664 0,0.225333 -0.0173,0.468 -0.0693,0.728 l -1.02266,5.078667 h 2.16666 l 0.97067,-4.818667 c 0.364,-1.802667 1.352,-2.652 2.84267,-2.652 1.196,0 1.768,0.589333 1.768,1.664 0,0.225333 -0.0173,0.468 -0.0693,0.728 l -1.02266,5.078667 h 2.16666 l 1.02267,-5.130667 c 0.0867,-0.416 0.12133,-0.797334 0.12133,-1.144 0,-2.010667 -1.3,-3.085334 -3.34533,-3.085334 z"
     style="font-style:italic;font-variant:normal;font-weight:600;font-stretch:normal;font-size:17.33333397px;font-family:Montserrat;-inkscape-font-specification:'Montserrat Semi-Bold Italic';fill:#606060;fill-opacity:1"
     id="path2428" /><path
     d="m 269.66125,58.762001 c -1.21333,0 -2.236,0.381334 -3.016,1.074667 l 0.19067,-0.970667 h -2.06267 l -2.51333,12.618667 h 2.16666 l 0.936,-4.732 c 0.60667,0.988 1.716,1.490667 3.172,1.490667 2.94667,0 5.2,-2.270667 5.2,-5.425334 0,-2.565333 -1.80266,-4.056 -4.07333,-4.056 z m -1.3,7.626667 c -1.56,0 -2.444,-0.884 -2.444,-2.322667 0,-2.045333 1.352,-3.466666 3.18933,-3.466666 1.56,0 2.444,0.884 2.444,2.322666 0,2.045334 -1.352,3.466667 -3.18933,3.466667 z"
     style="font-style:italic;font-variant:normal;font-weight:600;font-stretch:normal;font-size:17.33333397px;font-family:Montserrat;-inkscape-font-specification:'Montserrat Semi-Bold Italic';fill:#606060;fill-opacity:1"
     id="path2430" /><path
     d="m 283.46806,58.866001 -0.97066,4.801334 c -0.364,1.802667 -1.456,2.669333 -2.99867,2.669333 -1.23067,0 -1.83733,-0.606666 -1.83733,-1.681333 0,-0.225333 0.0173,-0.450667 0.0693,-0.710667 l 1.02267,-5.078667 h -2.16667 l -1.02267,5.130667 c -0.0867,0.398667 -0.12133,0.762667 -0.12133,1.109334 0,2.028 1.352,3.137333 3.34533,3.137333 1.196,0 2.288,-0.364 3.13734,-1.144 l -0.208,1.022667 h 2.06266 l 1.85467,-9.256001 z"
     style="font-style:italic;font-variant:normal;font-weight:600;font-stretch:normal;font-size:17.33333397px;font-family:Montserrat;-inkscape-font-specification:'Montserrat Semi-Bold Italic';fill:#606060;fill-opacity:1"
     id="path2432" /><path
     d="m 290.55117,60.668668 h 2.496 l 0.34667,-1.733333 h -2.496 l 0.43333,-2.114667 h -2.16666 l -0.416,2.114667 h -1.508 l -0.34667,1.733333 h 1.508 l -0.884,4.368 c -0.052,0.26 -0.0693,0.502667 -0.0693,0.728 0,1.56 1.07466,2.478667 2.652,2.478667 0.76266,0 1.57733,-0.138667 2.236,-0.554667 l -0.38134,-1.594666 c -0.364,0.242666 -0.79733,0.364 -1.21333,0.364 -0.76267,0 -1.092,-0.398667 -1.092,-1.04 0,-0.121334 0.0173,-0.26 0.0347,-0.398667 z"
     style="font-style:italic;font-variant:normal;font-weight:600;font-stretch:normal;font-size:17.33333397px;font-family:Montserrat;-inkscape-font-specification:'Montserrat Semi-Bold Italic';fill:#606060;fill-opacity:1"
     id="path2434" /><path
     d="m 302.39418,58.866001 -0.26,1.369334 c -0.624,-0.988 -1.716,-1.473334 -3.15467,-1.473334 -2.964,0 -5.21733,2.253334 -5.21733,5.408001 0,2.565333 1.80266,4.073333 4.07333,4.073333 1.21333,0 2.236,-0.381333 3.016,-1.074667 l -0.19067,0.953334 h 2.06267 l 1.83733,-9.256001 z m -4.004,7.522667 c -1.56,0 -2.444,-0.884 -2.444,-2.322667 0,-2.045333 1.352,-3.466666 3.18933,-3.466666 1.56,0 2.444,0.884 2.444,2.322666 0,2.045334 -1.352,3.466667 -3.18933,3.466667 z"
     style="font-style:italic;font-variant:normal;font-weight:600;font-stretch:normal;font-size:17.33333397px;font-family:Montserrat;-inkscape-font-specification:'Montserrat Semi-Bold Italic';fill:#606060;fill-opacity:1"
     id="path2436" /><path
     d="m 309.47566,60.668668 h 2.496 l 0.34666,-1.733333 h -2.496 l 0.43334,-2.114667 h -2.16667 l -0.416,2.114667 h -1.508 l -0.34667,1.733333 h 1.508 l -0.884,4.368 c -0.052,0.26 -0.0693,0.502667 -0.0693,0.728 0,1.56 1.07467,2.478667 2.652,2.478667 0.76267,0 1.57733,-0.138667 2.236,-0.554667 l -0.38133,-1.594666 c -0.364,0.242666 -0.79734,0.364 -1.21334,0.364 -0.76266,0 -1.092,-0.398667 -1.092,-1.04 0,-0.121334 0.0173,-0.26 0.0347,-0.398667 z"
     style="font-style:italic;font-variant:normal;font-weight:600;font-stretch:normal;font-size:17.33333397px;font-family:Montserrat;-inkscape-font-specification:'Montserrat Semi-Bold Italic';fill:#606060;fill-opacity:1"
     id="path2438" /><path
     d="m 316.31933,57.340668 c 0.884,0 1.47334,-0.589333 1.47334,-1.438667 0,-0.641333 -0.52,-1.161333 -1.3,-1.161333 -0.884,0 -1.47334,0.606667 -1.47334,1.386667 0,0.658666 0.52,1.213333 1.3,1.213333 z m -3.41466,10.781334 h 2.16666 l 1.83734,-9.256001 H 314.742 Z"
     style="font-style:italic;font-variant:normal;font-weight:600;font-stretch:normal;font-size:17.33333397px;font-family:Montserrat;-inkscape-font-specification:'Montserrat Semi-Bold Italic';fill:#606060;fill-opacity:1"
     id="path2440" /><path
     d="m 322.49109,68.243335 c 3.20667,0 5.512,-2.322667 5.512,-5.425334 0,-2.461333 -1.768,-4.056 -4.50667,-4.056 -3.20666,0 -5.49466,2.305334 -5.49466,5.408001 0,2.444 1.768,4.073333 4.48933,4.073333 z m 0.13867,-1.854667 c -1.56,0 -2.444,-0.884 -2.444,-2.322667 0,-2.045333 1.352,-3.466666 3.18933,-3.466666 1.56,0 2.444,0.884 2.444,2.322666 0,2.045334 -1.352,3.466667 -3.18933,3.466667 z"
     style="font-style:italic;font-variant:normal;font-weight:600;font-stretch:normal;font-size:17.33333397px;font-family:Montserrat;-inkscape-font-specification:'Montserrat Semi-Bold Italic';fill:#606060;fill-opacity:1"
     id="path2442" /><path
     d="m 335.9683,58.762001 c -1.23067,0 -2.34,0.364 -3.18934,1.126667 l 0.208,-1.022667 h -2.06266 l -1.83734,9.256001 h 2.16667 l 0.97067,-4.801334 c 0.364,-1.802667 1.456,-2.669333 3.03333,-2.669333 1.26533,0 1.85467,0.606666 1.85467,1.681333 0,0.208 -0.0173,0.450667 -0.0693,0.710667 l -1.00533,5.078667 h 2.16667 l 1.02266,-5.130667 c 0.0693,-0.398667 0.12134,-0.762667 0.12134,-1.109334 0,-2.028 -1.33467,-3.12 -3.38,-3.12 z"
     style="font-style:italic;font-variant:normal;font-weight:600;font-stretch:normal;font-size:17.33333397px;font-family:Montserrat;-inkscape-font-specification:'Montserrat Semi-Bold Italic';fill:#606060;fill-opacity:1"
     id="path2444" /><path
     d="m 349.79001,58.866001 -0.26,1.369334 c -0.624,-0.988 -1.716,-1.473334 -3.15467,-1.473334 -2.964,0 -5.21733,2.253334 -5.21733,5.408001 0,2.565333 1.80266,4.073333 4.07333,4.073333 1.21333,0 2.236,-0.381333 3.016,-1.074667 l -0.19067,0.953334 h 2.06267 l 1.83733,-9.256001 z m -4.004,7.522667 c -1.56,0 -2.444,-0.884 -2.444,-2.322667 0,-2.045333 1.352,-3.466666 3.18933,-3.466666 1.56,0 2.444,0.884 2.444,2.322666 0,2.045334 -1.352,3.466667 -3.18933,3.466667 z"
     style="font-style:italic;font-variant:normal;font-weight:600;font-stretch:normal;font-size:17.33333397px;font-family:Montserrat;-inkscape-font-specification:'Montserrat Semi-Bold Italic';fill:#606060;fill-opacity:1"
     id="path2446" /><path
     d="m 352.95415,68.122002 h 2.16667 l 2.56533,-12.861334 h -2.16667 z"
     style="font-style:italic;font-variant:normal;font-weight:600;font-stretch:normal;font-size:17.33333397px;font-family:Montserrat;-inkscape-font-specification:'Montserrat Semi-Bold Italic';fill:#606060;fill-opacity:1"
     id="path2448" /><path
     d="m 372.75668,61.847335 c 1.248,-0.502667 2.16666,-1.577334 2.16666,-3.137334 0,-1.768 -1.43866,-2.721333 -3.952,-2.721333 h -5.59866 l -2.42667,12.133334 h 6.084 c 3.172,0 5.37333,-1.248 5.37333,-3.813334 0,-1.248 -0.624,-2.08 -1.64666,-2.461333 z m -2.288,-4.090667 c 1.33466,0 2.09733,0.416 2.09733,1.334667 0,1.334666 -1.092,2.010666 -2.77333,2.010666 h -3.20667 l 0.676,-3.345333 z m -1.28267,8.597334 h -3.64 l 0.69333,-3.501334 h 3.72667 c 1.38667,0 2.184,0.381333 2.184,1.456 0,1.352 -1.092,2.045334 -2.964,2.045334 z"
     style="font-style:italic;font-variant:normal;font-weight:600;font-stretch:normal;font-size:17.33333397px;font-family:Montserrat;-inkscape-font-specification:'Montserrat Semi-Bold Italic';fill:#606060;fill-opacity:1"
     id="path2450" /><path
     d="m 379.3558,57.340668 c 0.884,0 1.47334,-0.589333 1.47334,-1.438667 0,-0.641333 -0.52,-1.161333 -1.3,-1.161333 -0.884,0 -1.47334,0.606667 -1.47334,1.386667 0,0.658666 0.52,1.213333 1.3,1.213333 z m -3.41466,10.781334 h 2.16666 l 1.83734,-9.256001 h -2.16667 z"
     style="font-style:italic;font-variant:normal;font-weight:600;font-stretch:normal;font-size:17.33333397px;font-family:Montserrat;-inkscape-font-specification:'Montserrat Semi-Bold Italic';fill:#606060;fill-opacity:1"
     id="path2452" /><path
     d="m 385.52754,68.243335 c 3.20667,0 5.512,-2.322667 5.512,-5.425334 0,-2.461333 -1.768,-4.056 -4.50666,-4.056 -3.20667,0 -5.49467,2.305334 -5.49467,5.408001 0,2.444 1.768,4.073333 4.48933,4.073333 z m 0.13867,-1.854667 c -1.56,0 -2.444,-0.884 -2.444,-2.322667 0,-2.045333 1.352,-3.466666 3.18933,-3.466666 1.56,0 2.444,0.884 2.444,2.322666 0,2.045334 -1.352,3.466667 -3.18933,3.466667 z"
     style="font-style:italic;font-variant:normal;font-weight:600;font-stretch:normal;font-size:17.33333397px;font-family:Montserrat;-inkscape-font-specification:'Montserrat Semi-Bold Italic';fill:#606060;fill-opacity:1"
     id="path2454" /><path
     d="m 395.27808,68.243335 c 2.6,0 4.43734,-1.092 4.43734,-3.12 0,-3.085334 -5.00934,-1.889334 -5.00934,-3.484 0,-0.641334 0.676,-1.126667 2.08,-1.126667 0.90134,0 1.924,0.190667 2.73867,0.710667 l 0.79733,-1.664 c -0.78,-0.502667 -2.08,-0.797334 -3.328,-0.797334 -2.63466,0 -4.40266,1.178667 -4.40266,3.12 0,3.137334 5.00933,1.958667 5.00933,3.484001 0,0.693333 -0.676,1.109333 -2.09733,1.109333 -1.23067,0 -2.47867,-0.364 -3.224,-0.901333 l -0.90134,1.664 c 0.76267,0.572 2.288,1.005333 3.9,1.005333 z"
     style="font-style:italic;font-variant:normal;font-weight:600;font-stretch:normal;font-size:17.33333397px;font-family:Montserrat;-inkscape-font-specification:'Montserrat Semi-Bold Italic';fill:#606060;fill-opacity:1"
     id="path2456" /><path
     d="m 405.68892,68.243335 c 1.768,0 3.36266,-0.762667 4.22933,-2.062667 l -1.59467,-1.074666 c -0.60666,0.884 -1.508,1.282666 -2.53066,1.282666 -1.57734,0 -2.46134,-0.884 -2.46134,-2.322667 0,-2.045333 1.352,-3.466666 3.18934,-3.466666 1.092,0 1.872,0.416 2.30533,1.282666 l 1.85467,-0.953333 c -0.74534,-1.438667 -2.11467,-2.166667 -3.98667,-2.166667 -3.25867,0 -5.54667,2.305334 -5.54667,5.408001 0,2.444 1.768,4.073333 4.54134,4.073333 z"
     style="font-style:italic;font-variant:normal;font-weight:600;font-stretch:normal;font-size:17.33333397px;font-family:Montserrat;-inkscape-font-specification:'Montserrat Semi-Bold Italic';fill:#606060;fill-opacity:1"
     id="path2458" /><path
     d="m 414.53027,57.340668 c 0.884,0 1.47333,-0.589333 1.47333,-1.438667 0,-0.641333 -0.52,-1.161333 -1.3,-1.161333 -0.884,0 -1.47333,0.606667 -1.47333,1.386667 0,0.658666 0.52,1.213333 1.3,1.213333 z m -3.41467,10.781334 h 2.16667 l 1.83733,-9.256001 h -2.16666 z"
     style="font-style:italic;font-variant:normal;font-weight:600;font-stretch:normal;font-size:17.33333397px;font-family:Montserrat;-inkscape-font-specification:'Montserrat Semi-Bold Italic';fill:#606060;fill-opacity:1"
     id="path2460" /><path
     d="m 425.81538,62.818001 c 0,-2.530666 -1.69867,-4.056 -4.264,-4.056 -3.10267,0 -5.33867,2.270667 -5.33867,5.408001 0,2.461333 1.768,4.073333 4.55867,4.073333 1.42133,0 2.82533,-0.416 3.796,-1.282667 l -0.90134,-1.508 c -0.64133,0.606667 -1.612,0.953334 -2.66933,0.953334 -1.78533,0 -2.63467,-0.797334 -2.66933,-2.270667 h 7.34933 c 0.0867,-0.398667 0.13867,-0.849334 0.13867,-1.317334 z m -4.368,-2.322666 c 1.43866,0 2.392,0.78 2.37466,2.201333 h -5.304 c 0.39867,-1.352 1.456,-2.201333 2.92934,-2.201333 z"
     style="font-style:italic;font-variant:normal;font-weight:600;font-stretch:normal;font-size:17.33333397px;font-family:Montserrat;-inkscape-font-specification:'Montserrat Semi-Bold Italic';fill:#606060;fill-opacity:1"
     id="path2462" /><path
     d="m 433.73913,58.762001 c -1.23067,0 -2.34,0.364 -3.18934,1.126667 l 0.208,-1.022667 h -2.06266 l -1.83734,9.256001 h 2.16667 l 0.97067,-4.801334 c 0.364,-1.802667 1.456,-2.669333 3.03333,-2.669333 1.26533,0 1.85467,0.606666 1.85467,1.681333 0,0.208 -0.0173,0.450667 -0.0693,0.710667 l -1.00533,5.078667 h 2.16667 l 1.02266,-5.130667 c 0.0693,-0.398667 0.12134,-0.762667 0.12134,-1.109334 0,-2.028 -1.33467,-3.12 -3.38,-3.12 z"
     style="font-style:italic;font-variant:normal;font-weight:600;font-stretch:normal;font-size:17.33333397px;font-family:Montserrat;-inkscape-font-specification:'Montserrat Semi-Bold Italic';fill:#606060;fill-opacity:1"
     id="path2464" /><path
     d="m 443.47017,68.243335 c 1.768,0 3.36266,-0.762667 4.22933,-2.062667 l -1.59467,-1.074666 c -0.60666,0.884 -1.508,1.282666 -2.53066,1.282666 -1.57734,0 -2.46134,-0.884 -2.46134,-2.322667 0,-2.045333 1.352,-3.466666 3.18934,-3.466666 1.092,0 1.872,0.416 2.30533,1.282666 l 1.85467,-0.953333 c -0.74534,-1.438667 -2.11467,-2.166667 -3.98667,-2.166667 -3.25867,0 -5.54667,2.305334 -5.54667,5.408001 0,2.444 1.768,4.073333 4.54134,4.073333 z"
     style="font-style:italic;font-variant:normal;font-weight:600;font-stretch:normal;font-size:17.33333397px;font-family:Montserrat;-inkscape-font-specification:'Montserrat Semi-Bold Italic';fill:#606060;fill-opacity:1"
     id="path2466" /><path
     d="m 458.45078,62.818001 c 0,-2.530666 -1.69866,-4.056 -4.264,-4.056 -3.10267,0 -5.33867,2.270667 -5.33867,5.408001 0,2.461333 1.768,4.073333 4.55867,4.073333 1.42134,0 2.82534,-0.416 3.796,-1.282667 l -0.90133,-1.508 c -0.64133,0.606667 -1.612,0.953334 -2.66934,0.953334 -1.78533,0 -2.63466,-0.797334 -2.66933,-2.270667 h 7.34934 c 0.0867,-0.398667 0.13866,-0.849334 0.13866,-1.317334 z m -4.368,-2.322666 c 1.43867,0 2.392,0.78 2.37467,2.201333 h -5.304 c 0.39866,-1.352 1.456,-2.201333 2.92933,-2.201333 z"
     style="font-style:italic;font-variant:normal;font-weight:600;font-stretch:normal;font-size:17.33333397px;font-family:Montserrat;-inkscape-font-specification:'Montserrat Semi-Bold Italic';fill:#606060;fill-opacity:1"
     id="path2468" /></g>

</svg>