<svg xmlns="http://www.w3.org/2000/svg" viewBox="0 0 2657 420" width="2657" height="420">
	<style>
		tspan { white-space:pre }
		.shp0 { fill: #7a7677 } 
		.shp1 { fill: #174e93 } 
	</style>
	<g id="Layer 1">
		<path id="Path 0" class="shp0" d="M468.5,-0.05l58,104.68c31.9,57.58 58.1,105.17 58.23,105.77c0.13,0.6 -25.99,48.34 -116.28,211.09l-217.47,0.25c-197.21,0.23 -217.98,0.1 -222.97,-1.36c-3.02,-0.88 -7.93,-3.25 -10.9,-5.25c-2.97,-2 -6.59,-5.22 -8.05,-7.14c-1.46,-1.93 -3.34,-4.62 -4.19,-6c-0.85,-1.37 -2.29,-4.75 -3.21,-7.5c-1.54,-4.6 -1.67,-19.21 -1.65,-183.5c0.02,-157.29 0.2,-179.09 1.55,-183.5c0.84,-2.75 2.83,-7.02 4.43,-9.5c1.6,-2.47 4.16,-5.67 5.71,-7.09c1.55,-1.42 4.39,-3.66 6.31,-4.96c1.93,-1.31 5.52,-3.13 8,-4.07c4.17,-1.57 20.39,-1.7 442.5,-1.93zM66,211v94h30c0.41,-113.87 0.84,-137.45 1.5,-137.36c0.55,0.08 20.13,31.03 43.5,68.78l42.5,68.64l34.5,-0.07v-188h-31c0,122.65 -0.26,136.99 -1.25,136.97c-0.69,-0.02 -20.26,-30.84 -43.5,-68.5l-42.25,-68.47h-34M251,211v94h32v-188h-32M317,211v94h32l0.5,-84.5l86.5,-0.5v85h32v-188h-32v75h-87v-75h-32" />
		<path id="Path 1" class="shp1" d="M498.2,1.25c0.28,0.69 26.28,47.83 57.78,104.75c31.49,56.93 57.29,103.95 57.32,104.5c0.03,0.55 -25.9,47.91 -57.62,105.25c-31.73,57.34 -57.68,104.7 -57.68,105.25c0,0.63 6.26,1 16.75,1.01c12.54,0.01 18.13,-0.4 22.25,-1.61c3.02,-0.89 7.75,-2.75 10.5,-4.12c2.75,-1.38 7.42,-4.36 10.37,-6.64c2.96,-2.28 6.83,-6.16 8.61,-8.64c1.78,-2.48 25.76,-45.23 53.28,-95c27.53,-49.77 50.59,-91.62 51.24,-93c1.1,-2.32 -2.59,-9.35 -50.66,-96.44c-41.38,-74.97 -52.89,-95.06 -56.99,-99.5c-2.83,-3.06 -7.78,-7.14 -11,-9.06c-3.22,-1.92 -8.67,-4.51 -12.1,-5.75c-5.62,-2.03 -8.07,-2.26 -24.41,-2.26c-14.13,0 -18.04,0.28 -17.64,1.25z" />
		<path id="Path 2" class="shp0" d="M762.5,166.08c1.65,-0.05 5.7,0.41 9,1.02c3.3,0.61 8.02,2.14 10.5,3.41c2.48,1.26 6.2,4.03 8.29,6.15c2.08,2.12 4.67,5.76 5.75,8.1c1.08,2.34 2.08,5.71 2.46,10.75h-13.98l-1.86,-4c-1.02,-2.2 -2.83,-5.07 -4.01,-6.38c-1.18,-1.31 -3.95,-3.21 -6.15,-4.23c-2.3,-1.06 -6.33,-1.86 -9.5,-1.88c-3.83,-0.02 -7.02,0.7 -10.5,2.39c-3.47,1.68 -6,3.9 -8.29,7.26c-1.81,2.66 -3.83,6.64 -4.5,8.84c-0.67,2.2 -1.2,8.05 -1.2,13c0.01,6.29 0.59,10.66 1.94,14.5c1.24,3.55 3.54,7.15 6.49,10.15c2.88,2.94 6.03,5.05 8.56,5.74c2.2,0.6 5.69,1.1 7.75,1.1c2.06,0 5.44,-0.69 7.5,-1.55c2.06,-0.86 4.82,-2.54 6.13,-3.75c1.31,-1.21 3.44,-4.44 4.74,-7.19c1.3,-2.75 2.36,-6.01 2.37,-7.25c0.01,-2.14 0.4,-2.25 15.51,-2.29l-0.75,4.02c-0.41,2.21 -1.75,6.61 -2.97,9.77c-1.43,3.71 -3.91,7.43 -7,10.5c-2.63,2.61 -6.69,5.62 -9.03,6.69c-2.34,1.07 -6.95,2.37 -10.25,2.89c-3.68,0.58 -8.52,0.59 -12.5,0.04c-3.58,-0.5 -8.75,-1.99 -11.5,-3.32c-2.75,-1.33 -6.77,-4.13 -8.94,-6.23c-2.17,-2.1 -5.22,-5.84 -6.79,-8.32c-1.56,-2.47 -3.74,-7.43 -4.83,-11c-1.29,-4.24 -1.97,-9.28 -1.95,-14.5c0.02,-4.4 0.62,-10.25 1.35,-13c0.72,-2.75 2.4,-7.21 3.74,-9.9c1.33,-2.7 4.45,-7.03 6.92,-9.64c2.48,-2.6 6.52,-5.77 9,-7.04c2.48,-1.27 6.98,-2.86 10,-3.53c3.02,-0.67 6.85,-1.26 8.5,-1.31zM1126.5,168.03c1.65,-0.03 4.47,0.29 6.27,0.71c3.19,0.74 3.27,0.9 3.23,11.26l-4.35,-0.25c-2.76,-0.16 -4.97,0.3 -6.04,1.25c-1.11,0.98 -1.68,2.97 -1.61,10l10.5,0.5l0.5,10.5h-11l-0.5,50.5l-13.5,0.5v-51h-10v-11h10v-5.5c0,-3.03 0.61,-6.96 1.35,-8.75c0.74,-1.79 2.18,-3.93 3.2,-4.75c1.02,-0.82 3.45,-2.04 5.4,-2.71c1.95,-0.66 4.9,-1.23 6.55,-1.26zM1277,168h15v84h-15v-42M1401.5,168.5l0.5,10.5h-4.93c-3.02,0 -5.54,0.58 -6.5,1.5c-0.97,0.93 -1.57,3.21 -1.57,10.5h11v10h-11v51h-14v-51h-10v-10h10l0.02,-5.25c0.01,-3.09 0.84,-7 2,-9.5c1.09,-2.35 3.43,-5.15 5.23,-6.27c2.68,-1.66 4.66,-1.97 19.25,-1.48zM1712,168h14v13h-14v-6.5M1950.5,168.5v13l-26.5,0.5l-0.5,70.5l-14.5,0.5v-71l-26.5,-0.5l-0.41,-5.38c-0.23,-2.96 -0.12,-6 0.24,-6.76c0.54,-1.14 6.47,-1.34 68.18,-0.86zM2069.09,167.91l13.41,0.59l1,29.72l2,-2.25c1.1,-1.24 3.8,-3.08 6,-4.09c2.47,-1.13 6.3,-1.84 10,-1.84c3.64,0 7.57,0.71 10,1.81c2.2,0.99 5.24,3.23 6.75,4.98c1.51,1.74 3.09,4.86 3.5,6.92c0.41,2.06 0.75,13.88 0.75,48.75l-13.5,0.5l-0.02,-19.75c-0.01,-10.86 -0.44,-21.55 -0.95,-23.75c-0.54,-2.34 -2.08,-4.98 -3.73,-6.38c-2.34,-1.98 -3.66,-2.31 -7.96,-2c-3.77,0.28 -5.88,1.05 -7.84,2.88c-1.48,1.38 -3.21,3.4 -3.84,4.5c-0.73,1.26 -1.34,9.8 -2.16,44l-13.5,0.5l0.05,-42.55M2267,168h14.01l-0.51,84.5l-13.5,0.5v-42.5M940,173h14v18h12v11h-12v18.5c0,15.11 0.27,18.77 1.5,20c0.89,0.89 3.33,1.5 10.5,1.5l-0.5,10.5h-8.54c-6.44,0 -9.21,-0.43 -11.25,-1.75c-1.49,-0.96 -3.38,-3.32 -4.21,-5.25c-1.17,-2.72 -1.5,-7.94 -1.5,-43.5h-10v-11h10v-9M1679,173h14v18h12v10h-12v18c0,10 0.44,18.89 1,20c0.8,1.6 2,2 11,2l0.03,10.5l-4.26,0.62c-2.34,0.34 -6.74,0.22 -9.76,-0.26c-3.03,-0.49 -6.35,-1.66 -7.39,-2.62c-1.04,-0.96 -2.5,-3.2 -3.25,-4.99c-1,-2.38 -1.36,-8.63 -1.36,-43.25h-10v-10h10v-9M1341,189.56c3.03,0.29 7.28,1.53 9.45,2.74c2.69,1.5 4.76,3.78 6.5,7.17c2.5,4.87 2.56,5.45 3.05,52.53h-14l-0.29,-21.75c-0.19,-14.52 -0.69,-22.58 -1.5,-24.25c-0.67,-1.37 -2.41,-3.18 -3.86,-4c-1.5,-0.85 -4.52,-1.39 -7,-1.25c-2.39,0.14 -5.59,1.08 -7.1,2.1c-1.51,1.02 -3.54,3.49 -4.5,5.5c-1.49,3.1 -1.75,6.66 -1.75,43.65h-14v-61h13l-0.06,8.5l3.78,-3.81c2.14,-2.15 5.73,-4.43 8.28,-5.24c2.82,-0.89 6.56,-1.23 10,-0.89zM1436.5,189.59c3.85,0.28 8.8,1.31 11,2.28c2.2,0.98 5.58,3.15 7.5,4.83c1.92,1.68 4.5,5.02 5.72,7.43c1.22,2.41 2.72,7.07 3.34,10.37c0.63,3.36 0.82,8.42 0.43,11.5c-0.38,3.03 -1.34,7.07 -2.14,9c-0.8,1.93 -2.67,5.23 -4.15,7.35c-1.49,2.12 -4.73,5.15 -7.2,6.74c-2.74,1.76 -7.04,3.33 -11,4.01c-4.8,0.82 -8.07,0.81 -12.5,-0.02c-3.3,-0.62 -7.8,-2.18 -10,-3.47c-2.2,-1.28 -5.42,-4.08 -7.15,-6.22c-1.73,-2.14 -3.98,-5.92 -5,-8.39c-1.37,-3.32 -1.84,-6.98 -1.82,-14c0.02,-7.38 0.49,-10.5 2.07,-14c1.12,-2.47 3.58,-6.25 5.47,-8.38c1.88,-2.13 5.11,-4.72 7.18,-5.75c2.06,-1.03 5.44,-2.3 7.5,-2.83c2.06,-0.53 6.9,-0.73 10.75,-0.45zM1424.75,203.28c-1.51,0.95 -3.75,3.63 -4.98,5.97c-1.76,3.36 -2.24,5.93 -2.25,12.25c-0.01,6.93 0.35,8.64 2.73,12.75c1.51,2.61 4.1,5.43 5.75,6.25c1.65,0.82 5.25,1.5 8,1.5c2.75,0 6.24,-0.7 7.75,-1.56c1.51,-0.86 3.76,-3.11 5,-5c1.24,-1.89 2.73,-5.57 3.32,-8.19c0.59,-2.61 0.78,-6.78 0.43,-9.25c-0.35,-2.47 -1.62,-6.47 -2.82,-8.88c-1.2,-2.41 -3.53,-5.16 -5.18,-6.12c-1.65,-0.96 -4.35,-1.96 -6,-2.23c-1.65,-0.27 -4.35,-0.2 -6,0.15c-1.65,0.35 -4.24,1.41 -5.75,2.36zM1508.5,189.5l0.5,13.5l-5.25,-0.03c-3.83,-0.02 -6.17,0.59 -8.66,2.25c-1.88,1.25 -4.35,4.08 -5.5,6.28c-1.86,3.57 -2.11,5.98 -2.59,40.5h-14v-61h13l-0.06,10.5l2.83,-4c1.56,-2.2 4.38,-4.73 6.28,-5.63c1.9,-0.9 4.12,-1.88 4.95,-2.19c0.83,-0.31 3.08,-0.48 8.5,-0.18zM1543.5,189.09c1.65,-0.04 4.8,0.42 7,1.02c2.38,0.66 5.42,2.63 7.5,4.86c3.29,3.53 3.58,3.64 4.75,1.89c0.69,-1.03 3.39,-3.1 6,-4.62c3.97,-2.3 5.91,-2.75 11.75,-2.73c4.96,0.02 8.13,0.6 10.89,2c2.46,1.25 4.85,3.63 6.5,6.48c2.6,4.48 2.61,4.6 3.11,54h-14l-0.25,-22.75c-0.2,-18.23 -0.55,-23.2 -1.75,-25.02c-0.83,-1.25 -3.08,-2.69 -5,-3.21c-1.92,-0.51 -4.85,-0.66 -6.5,-0.32c-1.65,0.34 -4.03,1.33 -5.29,2.21c-1.26,0.87 -2.61,2.26 -3,3.09c-0.39,0.82 -0.93,11.4 -1.71,45.5l-13.5,0.5l-0.3,-22.25c-0.23,-16.99 -0.64,-22.91 -1.75,-25.05c-0.94,-1.82 -2.68,-3.13 -4.95,-3.73c-2.15,-0.57 -4.85,-0.57 -7,0c-1.92,0.51 -4.26,1.74 -5.19,2.73c-0.93,0.99 -2.39,3.49 -3.25,5.55c-1.23,2.96 -1.56,7.85 -1.56,42.75h-14v-61l13.5,0.5l0.58,3.5c0.49,2.97 0.72,3.22 1.5,1.63c0.51,-1.03 2.5,-2.8 4.42,-3.94c1.92,-1.14 4.63,-2.4 6,-2.8c1.38,-0.4 3.85,-0.76 5.5,-0.8zM1640.5,189.37c4.85,0.25 8.76,1.17 12.75,3c3.16,1.45 6.54,3.85 7.5,5.34c1.47,2.27 1.83,5.93 2.25,23.04c0.41,16.66 0.77,20.49 2,21.19c0.83,0.47 2.29,0.68 3.25,0.46c1.49,-0.33 1.75,0.36 1.75,4.61c0,3.93 -0.37,5.09 -1.75,5.43c-0.96,0.23 -3.1,0.71 -4.75,1.07c-1.84,0.4 -4.45,0.04 -6.75,-0.93c-2.06,-0.86 -4.31,-2.41 -5,-3.44c-1.21,-1.81 -1.4,-1.8 -5.75,0.5c-2.47,1.3 -7.2,2.85 -10.5,3.44c-4.3,0.76 -7.41,0.75 -11,-0.04c-2.75,-0.61 -6.7,-2.32 -8.79,-3.81c-2.17,-1.55 -4.41,-4.32 -5.25,-6.46c-0.8,-2.06 -1.46,-5.55 -1.46,-7.75c0,-2.2 0.6,-5.46 1.32,-7.25c0.73,-1.79 2.64,-4.29 4.25,-5.55c1.61,-1.27 5.18,-2.94 7.93,-3.71c2.75,-0.77 9.5,-2.1 15,-2.94c7.12,-1.09 10.37,-2.04 11.27,-3.29c0.7,-0.97 1.27,-2.88 1.27,-4.26c0,-1.37 -0.57,-3.32 -1.27,-4.32c-0.7,-1 -3.4,-2.24 -6.02,-2.75c-2.96,-0.58 -6.35,-0.58 -9,0.01c-2.42,0.54 -5.22,2.05 -6.5,3.5c-1.24,1.4 -2.25,3.23 -2.25,4.05c0,1.19 -1.44,1.5 -7,1.5c-6.01,0 -7,-0.25 -6.98,-1.75c0.01,-0.96 0.84,-3.55 1.84,-5.75c1,-2.2 3.46,-5.46 5.46,-7.25c2.01,-1.79 3.99,-3.27 4.41,-3.29c0.42,-0.02 3.02,-0.7 5.77,-1.5c3.02,-0.88 7.77,-1.31 12,-1.09zM1638.5,224.57c-4.95,0.89 -10.12,2.18 -11.5,2.88c-1.37,0.7 -2.84,2.01 -3.25,2.91c-0.41,0.9 -0.76,2.88 -0.78,4.39c-0.02,1.56 0.9,3.62 2.11,4.75c1.53,1.43 3.9,2.11 8.28,2.37c4.16,0.25 7.11,-0.12 9.14,-1.15c1.65,-0.84 3.79,-2.35 4.76,-3.37c1.39,-1.47 1.7,-3.3 1.5,-8.83c-0.14,-3.84 -0.48,-6.66 -0.76,-6.27c-0.27,0.39 -4.55,1.43 -9.5,2.31zM1768,189.44c3.03,0.18 7.5,0.95 9.94,1.7c2.44,0.75 6.49,3.2 9,5.45c2.62,2.34 5.62,6.39 7.05,9.5c2.13,4.62 2.49,6.88 2.5,15.42c0.01,7.99 -0.41,10.91 -2.05,14.5c-1.13,2.47 -3.65,6.3 -5.6,8.5c-1.97,2.23 -5.93,5.06 -8.94,6.38c-3.86,1.71 -7.39,2.42 -12.4,2.5c-3.85,0.06 -9.25,-0.53 -12,-1.32c-3.7,-1.07 -6.45,-2.88 -10.58,-7c-4.1,-4.08 -6.07,-7.02 -7.41,-11.06c-1.07,-3.22 -1.83,-8.4 -1.83,-12.5c0,-3.85 0.5,-8.8 1.11,-11c0.61,-2.2 2.64,-6.25 4.51,-9c1.87,-2.75 5.38,-6.24 7.81,-7.75c2.43,-1.51 6.43,-3.18 8.91,-3.7c2.47,-0.52 6.97,-0.8 10,-0.62zM1757.26,203.08c-1.23,0.78 -3.44,3.67 -4.92,6.42c-2.11,3.94 -2.68,6.38 -2.7,11.5c-0.01,4.45 0.63,7.92 2.03,11c1.13,2.47 3.27,5.63 4.77,7c2.17,2 3.96,2.56 8.89,2.8c4.86,0.24 6.85,-0.13 9.41,-1.75c1.97,-1.24 4.23,-4.13 5.74,-7.3c1.7,-3.58 2.5,-7 2.52,-10.75c0.01,-3.03 -0.5,-7.07 -1.14,-9c-0.64,-1.93 -2,-4.74 -3.02,-6.25c-1.02,-1.51 -3.08,-3.36 -4.6,-4.11c-1.51,-0.75 -4.1,-1.58 -5.75,-1.86c-1.65,-0.28 -4.35,-0.19 -6,0.19c-1.65,0.38 -4.01,1.33 -5.24,2.11zM1840.5,189.61c3.3,0.3 7.58,1.43 9.5,2.5c1.92,1.08 4.63,3.6 6,5.6c2.49,3.62 2.5,3.77 3,54.29h-14l-0.5,-45.96l-2.77,-2.77c-2.28,-2.28 -3.62,-2.76 -7.5,-2.71c-2.6,0.04 -5.97,0.82 -7.48,1.75c-1.51,0.93 -3.54,2.9 -4.5,4.39c-1.48,2.28 -1.83,5.97 -2.75,44.8l-13.5,0.5v-61h13l-0.01,4.25c-0.01,3.88 0.11,4.08 1.34,2.25c0.74,-1.1 3.11,-3.1 5.26,-4.44c2.15,-1.34 5.04,-2.79 6.41,-3.22c1.38,-0.43 5.2,-0.53 8.5,-0.23zM836,190.36c5.09,0.21 8.79,0.96 11.5,2.35c2.2,1.12 5.77,4.01 7.93,6.42c2.16,2.4 4.57,5.95 5.35,7.87c0.78,1.93 1.85,5.97 2.39,9c0.54,3.03 0.72,6.51 0.4,7.75c-0.57,2.25 -0.58,2.25 -45.07,2.21l0.73,3.77c0.4,2.07 1.53,4.84 2.5,6.15c0.97,1.31 2.89,3.26 4.27,4.33c1.4,1.09 4.7,2.16 7.5,2.43c3.61,0.34 5.97,-0.03 8.49,-1.33c1.92,-0.99 4.4,-3.25 5.5,-5.02c1.9,-3.05 2.32,-3.21 8.26,-3.25c4.91,-0.03 6.25,0.28 6.25,1.46c0,0.82 -0.84,3.19 -1.86,5.25c-1.02,2.06 -3.84,5.46 -6.25,7.55c-2.65,2.3 -6.56,4.42 -9.89,5.38c-3.61,1.04 -7.73,1.41 -12,1.1c-4.14,-0.31 -8.31,-1.39 -11.5,-2.99c-2.75,-1.38 -6.42,-4.26 -8.15,-6.4c-1.73,-2.14 -3.98,-5.92 -5,-8.39c-1.36,-3.3 -1.85,-7.04 -1.85,-14c0,-7.47 0.44,-10.46 2.06,-14c1.13,-2.47 3.83,-6.47 6,-8.87c2.17,-2.4 5.2,-5.06 6.74,-5.9c1.54,-0.84 4.02,-1.9 5.5,-2.35c1.48,-0.45 6.07,-0.68 10.19,-0.51zM822.28,207.37c-1.17,1.72 -2.38,4.37 -2.7,5.88l-0.58,2.75l30.5,0.05c-1.22,-5.07 -2.23,-7.56 -3.04,-8.8c-0.81,-1.24 -2.93,-3.15 -4.71,-4.25c-1.85,-1.14 -4.97,-1.99 -7.25,-1.98c-2.2,0.01 -5.37,0.74 -7.05,1.62c-1.68,0.88 -4.01,3.01 -5.17,4.73zM903.5,190.02c3.6,0.01 7.6,0.74 10,1.83c2.2,0.99 5.24,3.23 6.75,4.98c1.67,1.93 3.15,5.23 3.77,8.42c0.56,2.89 0.9,14.7 0.48,47.25l-13.5,0.5l-0.01,-20.25c0,-11.14 -0.45,-21.94 -1,-24c-0.55,-2.08 -2.22,-4.68 -3.74,-5.85c-2.16,-1.65 -3.85,-2.02 -7.91,-1.75c-3.8,0.26 -5.86,1.01 -7.84,2.85c-1.48,1.38 -3.21,3.4 -3.84,4.5c-0.73,1.26 -1.34,9.8 -2.16,44l-13.5,0.5v-62h13v9l2.34,-2.75c1.28,-1.51 4.32,-3.76 6.75,-5c3.15,-1.6 6.14,-2.24 10.41,-2.23zM1001,190.36c5.09,0.21 8.79,0.96 11.5,2.35c2.2,1.12 5.77,4.01 7.94,6.42c2.17,2.4 4.74,6.17 5.73,8.37c1.02,2.29 1.91,7 2.33,18l-22.25,0.25c-20.42,0.23 -22.25,0.39 -22.26,2c0,0.96 1.01,3.75 2.25,6.19c1.24,2.44 3.38,5.29 4.76,6.33c1.38,1.04 4.75,2.14 7.5,2.44c3.45,0.38 6.08,0.06 8.5,-1.04c1.98,-0.9 4.37,-3.13 5.5,-5.14c1.96,-3.47 2.13,-3.55 8.25,-3.54c4.89,0.01 6.25,0.34 6.25,1.51c0,0.82 -0.84,3.19 -1.86,5.25c-1.02,2.06 -3.84,5.46 -6.25,7.55c-2.65,2.3 -6.56,4.42 -9.89,5.38c-3.54,1.02 -7.82,1.42 -12,1.14c-4.78,-0.32 -7.96,-1.24 -12,-3.46c-3.72,-2.05 -6.57,-4.61 -8.81,-7.94c-1.82,-2.7 -4.02,-7.39 -4.88,-10.42c-1.08,-3.79 -1.4,-7.67 -1.02,-12.5c0.3,-3.85 1.49,-9.14 2.63,-11.75c1.15,-2.61 3.77,-6.6 5.83,-8.87c2.06,-2.27 5.01,-4.81 6.56,-5.65c1.54,-0.84 4.02,-1.9 5.5,-2.35c1.48,-0.45 6.07,-0.68 10.19,-0.51zM985.97,209.5c-1.07,2.2 -1.95,4.56 -1.95,5.25c-0.01,0.95 3.64,1.25 14.99,1.25c14.89,0 15,-0.02 15,-2.25c0,-1.24 -0.9,-3.71 -2,-5.5c-1.1,-1.79 -3.46,-4.15 -5.25,-5.25c-1.85,-1.14 -4.97,-1.99 -7.25,-1.98c-2.3,0.01 -5.61,0.96 -7.8,2.25c-2.28,1.33 -4.57,3.83 -5.74,6.23zM1072,190v13l-5.75,0.28c-3.83,0.19 -6.75,0.97 -8.75,2.35c-1.65,1.14 -3.9,3.83 -5,5.97c-1.71,3.35 -2.07,6.52 -3,40.9h-13l-0.5,-61.5h13v10l3.75,-4.15c2.06,-2.28 5.1,-4.74 6.75,-5.46c1.65,-0.72 5.14,-1.33 12.5,-1.39zM1168,190.06c3.58,-0.04 8.75,0.58 11.5,1.39c2.77,0.81 6.96,3.16 9.39,5.26c2.42,2.09 5.54,6.04 6.94,8.79c2.06,4.04 2.62,6.82 2.95,14.5c0.33,7.85 0.05,10.45 -1.67,15c-1.14,3.03 -3.37,7.07 -4.95,9c-1.58,1.93 -5.3,4.85 -8.27,6.5c-4.99,2.77 -6.15,3 -15.39,3c-9.24,0 -10.41,-0.23 -15.4,-3c-3.06,-1.7 -6.87,-4.95 -8.78,-7.5c-1.86,-2.47 -4.1,-6.75 -4.98,-9.5c-1.15,-3.61 -1.48,-7.51 -1.17,-14c0.36,-7.61 0.88,-9.83 3.38,-14.39c1.63,-2.97 4.76,-6.93 6.96,-8.8c2.2,-1.87 6.03,-4.03 8.5,-4.79c2.47,-0.76 7.42,-1.42 11,-1.46zM1156.09,206.89c-0.98,1.44 -2.31,4.18 -2.95,6.11c-0.64,1.93 -1.18,6.2 -1.18,9.5c-0.01,4.62 0.62,7.24 2.77,11.39c1.87,3.62 3.93,6 6.28,7.25c1.92,1.03 5.19,1.87 7.25,1.86c2.06,0 5.55,-0.9 7.75,-2c3.01,-1.51 4.63,-3.3 6.57,-7.25c2.21,-4.52 2.52,-6.29 2.21,-12.75c-0.23,-4.84 -1.05,-8.88 -2.32,-11.4c-1.08,-2.14 -3.31,-4.83 -4.96,-5.96c-1.78,-1.22 -5.04,-2.19 -8,-2.39c-3.25,-0.21 -6.16,0.26 -8.32,1.35c-1.82,0.92 -4.12,2.85 -5.1,4.28zM1244,190v13l-5.92,0.25c-4.16,0.18 -6.76,0.88 -8.75,2.35c-1.56,1.16 -3.73,3.63 -4.83,5.5c-1.75,2.97 -2.06,5.75 -3,41.4l-13.5,0.5v-62h13l-0.01,10.5l2.54,-3.62c1.4,-1.99 4.43,-4.58 6.75,-5.75c2.54,-1.28 6.11,-2.13 13.72,-2.13zM1971,190.36c5.16,0.21 8.75,0.95 11.5,2.39c2.2,1.14 5.44,3.58 7.2,5.42c1.76,1.84 4.31,5.81 5.68,8.84c1.37,3.03 2.56,7.53 2.65,10c0.09,2.47 0.12,5.51 -0.02,9h-44l-0.02,2.25c-0.01,1.24 1,4.22 2.25,6.62c1.38,2.66 3.65,5.11 5.77,6.25c1.92,1.03 5.3,1.88 7.5,1.87c2.2,0 5.57,-0.79 7.49,-1.75c1.92,-0.96 4.4,-3.19 5.5,-4.96c1.9,-3.05 2.32,-3.21 14.51,-3.29l-0.56,2.75c-0.31,1.51 -1.66,4.44 -3,6.5c-1.34,2.06 -3.9,4.87 -5.69,6.23c-1.79,1.37 -5.5,3.17 -8.25,4.01c-2.75,0.84 -7.25,1.53 -10,1.53c-2.75,0 -7.25,-0.66 -10,-1.47c-2.8,-0.82 -6.91,-3.13 -9.35,-5.26c-2.4,-2.09 -5.54,-6.27 -7,-9.29c-2.32,-4.82 -2.65,-6.73 -2.65,-15.5c0,-8.32 0.39,-10.84 2.3,-15c1.26,-2.75 3.96,-6.72 6,-8.83c2.04,-2.11 4.96,-4.54 6.51,-5.4c1.54,-0.86 4.02,-1.94 5.5,-2.39c1.48,-0.45 6.07,-0.68 10.19,-0.51zM1956.28,208.5c-1.24,2.2 -2.26,4.79 -2.27,5.75c-0.01,1.59 1.38,1.75 15.23,1.77l15.25,0.02c-1.26,-5.07 -2.49,-7.78 -3.56,-9.3c-1.07,-1.51 -3.29,-3.43 -4.94,-4.25c-1.65,-0.82 -4.69,-1.5 -6.75,-1.5c-2.06,0 -5.32,0.79 -7.23,1.75c-1.98,0.99 -4.46,3.47 -5.73,5.75zM2032.5,190.06c3.3,-0.04 8.36,0.6 11.25,1.43c2.89,0.83 6.88,2.97 8.88,4.76c1.99,1.79 4.32,4.6 5.16,6.25c0.84,1.65 1.91,4.46 3.22,9.5h-14l-1.5,-3.5c-0.83,-1.93 -2.96,-4.4 -4.75,-5.5c-1.95,-1.2 -5.05,-2.01 -7.75,-2.03c-3.05,-0.02 -5.61,0.7 -7.94,2.25c-1.89,1.25 -4.37,3.85 -5.5,5.78c-1.66,2.83 -2.06,5.22 -2.06,12.5c0,7 0.44,9.88 2,12.99c1.1,2.19 3.58,5.05 5.5,6.34c2.71,1.82 4.52,2.27 8,1.98c2.47,-0.21 5.74,-1.15 7.25,-2.09c1.51,-0.94 3.39,-3.18 4.18,-4.97c0.78,-1.79 1.68,-4.04 2,-5c0.47,-1.43 1.79,-1.75 14.07,-1.79l-0.8,4.27c-0.44,2.35 -1.9,6.18 -3.25,8.52c-1.35,2.34 -4.12,5.49 -6.17,7c-2.05,1.51 -5.31,3.29 -7.25,3.96c-1.94,0.66 -6.23,1.23 -9.53,1.26c-3.3,0.03 -8.25,-0.61 -11,-1.41c-2.8,-0.82 -6.91,-3.13 -9.35,-5.26c-2.4,-2.09 -5.54,-6.27 -7,-9.29c-2.32,-4.82 -2.65,-6.73 -2.65,-15.52c0,-9.26 0.25,-10.53 3.25,-16.75c1.97,-4.08 4.73,-7.92 7,-9.76c2.06,-1.67 5.78,-3.66 8.25,-4.43c2.47,-0.77 7.2,-1.43 10.5,-1.48zM2167,190.11c3.3,-0.04 7.1,0.66 9.5,1.74c2.2,0.99 5.24,3.23 6.75,4.98c1.67,1.93 3.15,5.23 3.77,8.42c0.56,2.89 0.9,14.7 0.48,47.25l-13.5,0.5v-21c0,-15 -0.37,-21.93 -1.31,-24.25c-0.72,-1.79 -2.41,-4.04 -3.75,-5.01c-1.37,-0.98 -4.2,-1.75 -6.44,-1.75c-2.23,0.01 -5.44,0.9 -7.25,2.01c-1.79,1.1 -4.04,3.21 -5,4.7c-1.48,2.28 -1.83,5.97 -2.75,44.8h-13l-0.5,-61.5h13l0.06,8.5l3.97,-3.75c2.18,-2.06 5.43,-4.16 7.22,-4.66c1.79,-0.5 5.72,-0.94 8.75,-0.98zM2228.5,190.29c7.77,0.26 9.73,0.7 14.38,3.26c2.96,1.63 6.63,4.53 8.15,6.46c1.52,1.93 3.6,5.53 4.62,8c1.36,3.3 1.85,7.04 1.85,14c0,8.19 -0.36,10.26 -2.62,15c-1.44,3.03 -4.14,7.03 -6,8.9c-1.86,1.87 -5.4,4.31 -7.88,5.41c-2.49,1.11 -7.62,2.22 -11.5,2.47c-4.64,0.31 -8.85,-0.06 -12.5,-1.1c-3.43,-0.98 -7.19,-3.04 -10,-5.49c-2.47,-2.16 -5.5,-5.9 -6.72,-8.31c-1.22,-2.41 -2.72,-7.09 -3.34,-10.39c-0.61,-3.3 -0.83,-8.03 -0.48,-10.5c0.35,-2.47 1.27,-6.53 2.04,-9c0.81,-2.61 3.42,-6.74 6.2,-9.82c3.26,-3.61 6.41,-5.95 9.8,-7.26c3.9,-1.51 6.97,-1.87 14,-1.63zM2214.89,206.63c-1.1,1.58 -2.66,5.12 -3.45,7.87c-0.8,2.75 -1.45,6.13 -1.45,7.5c0,1.38 0.68,4.86 1.51,7.75c0.88,3.07 2.86,6.66 4.76,8.65c1.87,1.96 4.73,3.7 6.75,4.11c1.93,0.39 5.19,0.44 7.25,0.1c2.2,-0.36 5.23,-1.95 7.33,-3.86c2.38,-2.16 4.06,-4.92 5.01,-8.25c0.79,-2.75 1.43,-6.8 1.42,-9c-0.01,-2.2 -0.46,-5.69 -1.01,-7.75c-0.55,-2.06 -2.23,-5.16 -3.74,-6.88c-1.51,-1.72 -3.99,-3.75 -5.5,-4.5c-1.51,-0.75 -4.44,-1.35 -6.5,-1.33c-2.06,0.02 -5.24,0.64 -7.05,1.38c-1.82,0.74 -4.21,2.63 -5.31,4.21zM2320,190.03c3.57,-0.03 8.97,0.67 12,1.55c4.28,1.25 6.67,2.81 10.75,7.01c4.02,4.14 5.64,6.75 6.91,11.16c0.91,3.16 1.64,9.13 1.63,13.25c-0.03,6.06 -0.58,8.73 -2.91,13.91c-1.91,4.27 -4.38,7.72 -7.38,10.31c-2.56,2.22 -6.65,4.52 -9.5,5.35c-2.75,0.8 -7.81,1.45 -11.25,1.44c-3.75,-0.01 -8.35,-0.8 -11.5,-1.98c-3.17,-1.19 -6.89,-3.67 -9.4,-6.25c-2.28,-2.35 -5.17,-6.3 -6.42,-8.78c-1.53,-3.03 -2.42,-6.94 -2.74,-12c-0.26,-4.12 0.04,-9.75 0.67,-12.5c0.63,-2.75 2.49,-7.14 4.14,-9.75c1.65,-2.61 4.68,-5.88 6.74,-7.25c2.06,-1.38 5.55,-3.16 7.75,-3.96c2.2,-0.8 6.93,-1.48 10.5,-1.51zM2307.54,208.9c-2.1,3.34 -3.03,6.26 -3.36,10.6c-0.3,3.95 0.1,7.71 1.16,11c0.95,2.93 3.1,6.45 5.19,8.5c3.31,3.24 4.04,3.5 9.77,3.5c5.02,0 6.85,-0.47 9.64,-2.5c1.93,-1.4 4.29,-4.48 5.37,-7c1.33,-3.11 1.9,-6.67 1.85,-11.5c-0.06,-5.23 -0.66,-8.13 -2.37,-11.45c-1.26,-2.45 -3.57,-5.37 -5.13,-6.5c-1.79,-1.29 -4.76,-2.16 -8,-2.34c-3.42,-0.19 -6.18,0.28 -8.19,1.4c-1.67,0.92 -4.34,3.75 -5.93,6.28zM2384.5,190.03c3.65,0.01 7.57,0.73 10,1.83c2.2,1 4.68,2.59 5.5,3.52c0.82,0.94 1.84,1.68 2.25,1.66c0.41,-0.02 0.67,-1.42 0.4,-6.14l13.85,0.59v31.5c0,22.57 -0.36,32.78 -1.28,36c-0.7,2.48 -2.73,6.25 -4.5,8.39c-1.77,2.14 -4.91,4.73 -6.97,5.75c-2.06,1.02 -6.56,2.29 -10,2.83c-3.72,0.58 -8.68,0.62 -12.25,0.11c-3.3,-0.47 -7.8,-1.61 -10,-2.53c-2.2,-0.92 -5.06,-2.66 -6.35,-3.86c-1.29,-1.21 -2.91,-3.32 -3.61,-4.69c-0.7,-1.37 -1.55,-3.74 -2.55,-8l6.75,0.01c6.44,0.01 6.83,0.14 8.5,3c0.96,1.65 3.32,3.67 5.25,4.49c1.93,0.82 5.3,1.5 7.5,1.5c2.2,0 5.69,-0.67 7.75,-1.49c2.11,-0.84 4.51,-2.8 5.5,-4.5c0.96,-1.65 2.09,-5.94 2.5,-9.52c0.48,-4.17 0.39,-6.52 -0.25,-6.53c-0.55,-0.01 -2.12,1.18 -3.5,2.64c-1.37,1.46 -4.07,3.32 -6,4.13c-1.95,0.82 -6.27,1.43 -9.75,1.37c-3.44,-0.06 -7.94,-0.8 -10,-1.66c-2.06,-0.86 -4.82,-2.54 -6.12,-3.75c-1.3,-1.21 -3.44,-3.88 -4.75,-5.94c-1.31,-2.06 -3.11,-6.56 -4,-10c-1.07,-4.12 -1.45,-8.46 -1.11,-12.75c0.28,-3.57 1.38,-8.53 2.45,-11c1.07,-2.47 3.48,-6.26 5.36,-8.41c1.88,-2.15 5.68,-4.96 8.43,-6.24c3.5,-1.63 6.8,-2.32 11,-2.31zM2373.87,209.25c-1.17,2.34 -2.36,6.72 -2.64,9.75c-0.33,3.61 0.05,7.22 1.11,10.5c0.89,2.75 3,6.35 4.7,8c2.82,2.74 3.68,3 9.92,3c5.41,0 7.3,-0.41 9.08,-2c1.24,-1.1 3.14,-4.03 4.23,-6.5c1.28,-2.9 2,-6.81 2.03,-11c0.04,-4.65 -0.57,-7.85 -2.12,-11.25c-1.2,-2.61 -3.42,-5.53 -4.93,-6.48c-1.51,-0.95 -5,-1.87 -7.75,-2.06c-3.74,-0.25 -5.82,0.19 -8.25,1.73c-1.79,1.13 -4.21,3.97 -5.38,6.31zM1712,191h14v61h-14v-30.5M2435.5,190.94l8,22.48c4.4,12.37 8.1,22.39 8.22,22.28c0.12,-0.11 3.53,-10.1 14.95,-44.2l7.17,-0.25c4.28,-0.15 7.17,0.15 7.17,0.75c0,0.55 -0.44,2.01 -0.98,3.25c-0.54,1.24 -6.45,17.1 -13.13,35.25c-6.68,18.15 -13.33,34.76 -14.77,36.91c-1.44,2.15 -3.75,4.77 -5.12,5.83c-1.37,1.05 -4.53,2.24 -7,2.63c-2.47,0.39 -6.64,0.58 -14,0.13v-12l4.75,0.6c3.79,0.48 5.26,0.21 7.25,-1.33c1.38,-1.06 3.24,-3.92 5.77,-10.77l-11.39,-30c-6.26,-16.5 -11.39,-30.34 -11.39,-30.75c0,-0.41 3.26,-0.76 14.5,-0.81zM1341.5,301.5c3.85,0.25 9.25,1.25 12,2.23c3.13,1.11 6.78,3.56 9.75,6.52c3.39,3.39 5.19,6.25 6.3,10c0.85,2.89 1.42,6.38 1.25,7.75c-0.29,2.4 -0.59,2.5 -14.21,2.5l-0.85,-4c-0.47,-2.2 -1.62,-5.25 -2.54,-6.77c-0.93,-1.52 -3.26,-3.54 -5.19,-4.47c-2.21,-1.08 -5.89,-1.7 -10,-1.7c-5.2,0.01 -7.4,0.54 -11,2.64c-2.47,1.44 -5.71,3.9 -7.19,5.47c-1.48,1.56 -3.92,5.54 -5.42,8.84c-1.5,3.3 -3.19,9.38 -3.75,13.5c-0.75,5.51 -0.71,8.96 0.18,13c0.69,3.15 2.42,7 4.05,9c1.57,1.93 4.15,4.28 5.74,5.24c1.59,0.96 5.14,2.03 7.89,2.38c3.17,0.41 6.46,0.16 9,-0.68c2.2,-0.73 5.54,-2.7 7.42,-4.38c1.88,-1.68 4.47,-5.42 8.08,-13.56l6.75,0.25c6.55,0.24 6.74,0.32 6.46,2.75c-0.16,1.38 -1.3,4.75 -2.55,7.5c-1.24,2.75 -4.09,7.02 -6.33,9.5c-2.48,2.75 -6.55,5.67 -10.45,7.5c-5.62,2.64 -7.47,3 -15.39,2.99c-6.3,0 -10.65,-0.58 -14.5,-1.93c-3.89,-1.36 -7.15,-3.56 -11.13,-7.49c-4.09,-4.05 -6.23,-7.21 -7.85,-11.57c-1.75,-4.72 -2.21,-8.03 -2.16,-15.5c0.04,-5.7 0.72,-11.7 1.7,-15c0.9,-3.02 2.79,-7.75 4.19,-10.5c1.41,-2.75 4.85,-7.29 7.65,-10.09c2.8,-2.8 7,-6.06 9.34,-7.25c2.34,-1.19 6.84,-2.83 10,-3.64c3.6,-0.93 8.37,-1.31 12.75,-1.02zM757.84,303.17c17.92,0.32 20.1,0.56 24.66,2.64c2.75,1.26 6.7,3.95 8.78,5.98c2.08,2.04 4.62,5.95 5.64,8.7c1.02,2.75 2.17,7.93 2.55,11.5c0.47,4.49 0.19,8.82 -0.9,14c-0.87,4.13 -2.85,10.2 -4.4,13.5c-1.55,3.3 -4.36,7.74 -6.24,9.87c-1.89,2.13 -5.9,5.53 -8.93,7.57c-3.55,2.39 -8.07,4.3 -12.75,5.38c-5.4,1.25 -11.96,1.68 -25.75,1.68c-16.95,0 -18.5,-0.15 -18.51,-1.75c0,-0.96 3.59,-18.85 7.99,-39.75c4.4,-20.9 8.04,-38.38 8.1,-38.84c0.06,-0.46 8.95,-0.68 19.76,-0.48zM744.64,342.75c-3.14,15.26 -5.7,28.09 -5.68,28.5c0.02,0.41 5.55,0.62 12.28,0.46c10.1,-0.24 12.95,-0.65 16.25,-2.37c2.2,-1.15 5.46,-3.72 7.25,-5.71c1.79,-2 4.1,-5.32 5.15,-7.38c1.04,-2.06 2.68,-6.45 3.63,-9.75c1.21,-4.19 1.58,-7.96 1.22,-12.5c-0.29,-3.57 -1.2,-7.85 -2.04,-9.5c-0.83,-1.65 -2.57,-4 -3.86,-5.23c-1.29,-1.22 -3.92,-2.69 -5.85,-3.25c-1.92,-0.56 -7.81,-1.02 -13.07,-1.02l-9.57,0M824.52,303c6.19,0 6.46,0.1 6.03,2.25c-0.25,1.24 -0.81,4.17 -2.05,10.79l-13.5,-0.04l1.01,-4.25c0.55,-2.34 1.24,-5.26 1.52,-6.5c0.46,-2.05 1.08,-2.25 6.99,-2.25zM901.14,303h6.43c5.05,0 6.43,0.32 6.43,1.5c0,0.82 -0.56,3.76 -2.5,11.53l-6.25,-0.02c-4.88,-0.01 -6.25,-0.34 -6.25,-1.52c0,-0.82 0.48,-3.75 1.07,-6.5M984.23,303l13.27,-0.03l-0.85,5.27c-0.47,2.9 -1.03,5.83 -1.25,6.52c-0.27,0.83 -2.59,1.25 -6.9,1.25c-3.58,0 -6.5,-0.34 -6.51,-0.75c0,-0.41 0.5,-3.34 1.12,-6.5M1262.16,303.22c3.66,0.15 7.04,0.64 7.5,1.07c0.46,0.43 0.39,2.68 -0.16,5c-1,4.19 -1.03,4.22 -6.21,4.71c-2.86,0.27 -5.86,1.18 -6.66,2c-0.8,0.82 -1.94,3.19 -3.63,9h5.5c3.74,0 5.5,0.4 5.49,1.25c-0.01,0.69 -0.34,2.95 -1.49,8.79l-5.75,-0.02c-3.16,-0.01 -5.75,0.32 -5.76,0.73c0,0.41 -2.03,10.43 -4.49,22.25c-2.47,11.82 -4.71,22.51 -4.99,23.75c-0.46,2.05 -1.08,2.25 -7.01,2.25c-4.55,0 -6.49,-0.37 -6.47,-1.25c0.02,-0.69 2.27,-11.71 9.97,-47.75l-9.5,-0.04l2,-10l9,0.08l1.84,-6.27c1.01,-3.45 2.74,-7.56 3.84,-9.14c1.1,-1.58 3.87,-3.73 6.16,-4.78c3.07,-1.41 5.91,-1.84 10.82,-1.63zM1826.14,303h6.43c3.54,0 6.43,0.34 6.44,0.75c0,0.41 -0.56,3.35 -2.51,12.29l-6.25,-0.02c-4.88,-0.02 -6.25,-0.35 -6.25,-1.52c0,-0.82 0.48,-3.75 1.07,-6.5M2053.5,303c4.53,0 6.5,0.38 6.51,1.25c0,0.69 -3.59,18.57 -7.99,39.75c-4.4,21.18 -8,38.84 -8.01,39.25c-0.01,0.41 -2.94,0.75 -6.51,0.75c-5.52,0 -6.5,-0.26 -6.5,-1.75c0,-0.96 3.61,-19.07 8.01,-40.25c4.41,-21.18 8,-38.61 8,-38.75c-0.01,-0.14 2.91,-0.25 6.49,-0.25zM2128.8,303.18c20.86,0.31 21.9,0.42 26.61,2.82c2.7,1.38 5.85,3.85 6.99,5.5c1.51,2.18 2.17,4.92 2.41,10c0.29,6.28 0.03,7.46 -2.53,11.5c-1.75,2.75 -4.41,5.28 -10.88,8.5l2.96,2c1.63,1.1 3.9,3.27 5.05,4.83c1.68,2.27 2.08,4.25 2.05,10c-0.03,5.33 -0.58,8.2 -2.16,11.17c-1.17,2.2 -3.4,5.19 -4.96,6.64c-1.56,1.45 -4.87,3.7 -7.34,5c-4.35,2.28 -5.35,2.37 -30.75,2.61c-24.57,0.23 -26.22,0.14 -25.82,-1.5c0.24,-0.96 3.87,-18.62 8.07,-39.25c4.2,-20.62 7.85,-38.09 8.12,-38.82c0.38,-1.05 4.89,-1.25 22.18,-1zM2116.4,326.82c-0.88,4.02 -1.55,7.96 -1.5,8.75c0.08,1.18 2.43,1.39 13.35,1.18c11.27,-0.21 13.77,-0.56 16.75,-2.3c2.4,-1.41 3.91,-3.29 4.81,-6c0.85,-2.57 1.02,-5 0.48,-6.95c-0.55,-1.98 -2.02,-3.59 -4.31,-4.75c-2.72,-1.37 -6.04,-1.75 -15.21,-1.75c-11.35,0 -11.75,0.07 -12.25,2.25c-0.29,1.24 -1.24,5.54 -2.12,9.57zM2109.99,358.5c-1.12,5.5 -2.25,10.79 -2.51,11.75c-0.44,1.6 0.63,1.75 12.77,1.74c7.29,0 15.05,-0.51 17.25,-1.14c2.2,-0.62 5.24,-2.42 6.75,-3.99c2.28,-2.37 2.75,-3.77 2.78,-8.11c0.02,-4.37 -0.41,-5.67 -2.58,-7.75c-2.5,-2.4 -3.18,-2.51 -17.45,-2.82c-8.17,-0.18 -14.88,-0.18 -14.91,0c-0.03,0.18 -0.97,4.82 -2.09,10.32zM2184.23,303l13.27,-0.03l-0.85,5.27c-0.47,2.9 -1.03,5.83 -1.25,6.52c-0.27,0.83 -2.59,1.25 -6.9,1.25c-3.57,0 -6.5,-0.34 -6.51,-0.75c0,-0.41 0.5,-3.34 1.12,-6.5M2397.14,303h6.43c3.54,0 6.43,0.34 6.44,0.75c0,0.41 -0.56,3.35 -2.51,12.29l-6.25,-0.02c-4.88,-0.02 -6.25,-0.35 -6.25,-1.52c0,-0.82 0.48,-3.75 1.07,-6.5M1691.26,308h6.37c4.45,0 6.36,0.38 6.33,1.25c-0.02,0.69 -0.68,4.18 -1.46,7.75c-0.79,3.57 -1.45,6.84 -1.46,7.25c-0.02,0.41 2.44,0.75 5.46,0.75c5.07,0 5.49,0.18 5.4,2.25c-0.05,1.24 -0.41,3.38 -0.79,4.75c-0.61,2.22 -1.34,2.56 -12.51,3.5l-3.29,15.5c-1.81,8.52 -3.19,17.07 -2.81,22.5h10.5l-0.63,3.5c-0.35,1.93 -0.97,4.18 -1.39,5c-0.47,0.94 -2.95,1.75 -6.62,2.17c-3.65,0.42 -7.18,0.23 -9.36,-0.5c-2.55,-0.86 -4.03,-2.26 -7.39,-9.17l3.71,-18.5c2.04,-10.18 3.71,-19.06 3.7,-19.75c-0.01,-0.82 -1.63,-1.24 -9.52,-1.21l0.82,-4.27c0.45,-2.35 1.01,-4.61 1.25,-5.02c0.24,-0.41 2.57,-0.74 9.93,-0.7l1.88,-8.52M1791.26,308h6.37c4.45,0 6.36,0.38 6.33,1.25c-0.02,0.69 -0.68,4.18 -1.46,7.75c-0.79,3.57 -1.45,6.84 -1.46,7.25c-0.02,0.41 2.44,0.75 5.46,0.75c4.62,0 5.48,0.28 5.38,1.75c-0.07,0.96 -0.4,3.1 -0.75,4.75c-0.6,2.85 -0.94,3.03 -12.52,4l-3.29,15.5c-1.81,8.52 -3.19,17.07 -2.81,22.5h10.49l-0.63,3.5c-0.35,1.93 -0.97,4.18 -1.38,5c-0.45,0.89 -2.92,1.78 -6.12,2.19c-2.95,0.38 -6.94,0.29 -8.86,-0.2c-1.92,-0.49 -4.28,-1.7 -5.24,-2.69c-0.96,-0.99 -2,-3.37 -2.32,-5.3c-0.37,-2.21 0.74,-9.97 3,-21c1.97,-9.62 3.58,-18.06 3.57,-18.75c-0.01,-0.83 -1.63,-1.24 -9.51,-1.21l0.82,-4.27c0.45,-2.35 1.01,-4.61 1.25,-5.02c0.24,-0.41 2.57,-0.74 9.93,-0.7l1.88,-8.52M944.5,324.34c6.03,0.19 10.07,0.84 12.25,1.97c1.79,0.93 4.24,3.15 5.44,4.94c1.2,1.79 2.44,5.17 3.31,11.78l-6.25,-0.01c-6.04,-0.01 -6.29,-0.12 -7.36,-3.03c-0.61,-1.66 -1.96,-3.46 -3,-4c-1.04,-0.54 -4.26,-1 -7.14,-1.02c-3.14,-0.02 -6.16,0.58 -7.5,1.5c-1.49,1.02 -2.25,2.55 -2.25,4.54c0,2.1 0.67,3.35 2.25,4.16c1.24,0.64 5.4,2.23 9.25,3.54c3.85,1.31 8.8,3.43 11,4.7c2.45,1.42 4.73,3.83 5.88,6.21c1.27,2.62 1.76,5.38 1.5,8.45c-0.26,3.13 -1.32,5.78 -3.38,8.45c-1.89,2.45 -5.04,4.8 -8.5,6.35c-4.45,1.99 -7.12,2.45 -14,2.44c-5.74,-0.01 -9.8,-0.56 -12.5,-1.71c-2.2,-0.93 -5.07,-2.69 -6.38,-3.89c-1.31,-1.21 -3,-3.66 -3.75,-5.44c-0.75,-1.79 -1.37,-4.6 -1.37,-6.25c0,-2.99 0.03,-3 5.75,-2.99c5.74,0.01 5.75,0.01 7.5,4c1.41,3.21 2.48,4.18 5.5,4.98c2.06,0.55 4.99,1 6.5,1c1.51,0 4.33,-0.67 6.25,-1.49c1.92,-0.82 4.06,-2.6 4.75,-3.94c1.05,-2.06 0.97,-2.84 -0.5,-5c-1.07,-1.57 -3.97,-3.34 -7.5,-4.58c-3.16,-1.11 -7.77,-2.78 -10.25,-3.72c-2.48,-0.93 -5.74,-2.72 -7.25,-3.98c-1.51,-1.26 -3.25,-3.97 -3.87,-6.03c-0.62,-2.06 -0.84,-5.44 -0.5,-7.5c0.34,-2.06 1.86,-5.16 3.37,-6.88c1.51,-1.72 4.01,-3.82 5.56,-4.65c1.54,-0.83 4.02,-1.89 5.5,-2.34c1.48,-0.45 6.74,-0.69 11.69,-0.54zM1031,324.02c5.38,0.02 8.77,0.6 12,2.06c2.47,1.12 5.56,3.02 6.85,4.23c1.29,1.2 3.03,3.54 3.87,5.19c0.84,1.65 1.89,5.25 2.34,8c0.45,2.75 0.42,7.93 -0.07,11.5c-0.48,3.57 -1.8,8.64 -2.93,11.25c-1.13,2.61 -3.8,6.66 -5.94,9c-2.14,2.34 -5.85,5.25 -8.25,6.47c-2.4,1.22 -7.06,2.71 -10.36,3.3c-4.23,0.76 -7.54,0.77 -11.25,0.03c-2.89,-0.58 -6.49,-1.69 -8,-2.46c-1.51,-0.78 -3.96,-2.69 -5.45,-4.25c-1.48,-1.56 -3.47,-4.64 -4.41,-6.84c-1.16,-2.71 -1.7,-6.58 -1.67,-12c0.03,-5.53 0.68,-9.7 2.1,-13.5c1.15,-3.08 4.17,-7.88 6.87,-10.92c3.17,-3.57 6.86,-6.38 10.81,-8.25c4.95,-2.34 7.32,-2.83 13.5,-2.81zM1020.86,337.55c-1.45,1.07 -3.59,3.3 -4.74,4.95c-1.15,1.65 -2.78,5.25 -3.62,8c-0.83,2.75 -1.52,7.25 -1.53,10c-0.01,3.58 0.65,6 2.31,8.5c1.28,1.93 3.43,4.08 4.78,4.8c1.57,0.83 4.26,1.09 7.46,0.73c3.11,-0.35 6.23,-1.5 8.25,-3.05c1.79,-1.37 4.42,-4.85 5.86,-7.73c1.66,-3.35 2.79,-7.6 3.12,-11.75c0.37,-4.72 0.07,-7.53 -1.11,-10.25c-0.89,-2.06 -2.63,-4.37 -3.87,-5.13c-1.24,-0.76 -3.6,-1.59 -5.25,-1.86c-1.65,-0.26 -4.35,-0.18 -6,0.18c-1.65,0.36 -4.19,1.54 -5.64,2.61zM1104.5,324.04c4.01,-0.03 7.16,0.58 9.5,1.82c1.92,1.03 4.38,3.39 5.45,5.25c1.47,2.56 1.9,4.98 1.74,9.89c-0.12,3.57 -1.92,14.6 -7.83,42.5l-6.68,0.25c-3.68,0.14 -6.68,-0.09 -6.68,-0.5c0,-0.41 1.81,-9.3 4.01,-19.75c2.2,-10.45 4.01,-20.35 4.03,-22c0.01,-1.65 -0.78,-3.8 -1.76,-4.78c-1.22,-1.22 -3.35,-1.79 -6.78,-1.81c-3.9,-0.02 -5.86,0.59 -8.94,2.78c-2.17,1.54 -4.97,4.83 -6.23,7.31c-1.26,2.48 -3.88,12.04 -5.81,21.25c-1.93,9.21 -3.52,16.98 -3.52,17.25c0,0.27 -2.92,0.5 -6.5,0.5c-5.54,0 -6.5,-0.26 -6.47,-1.75c0.02,-0.96 2.61,-14.12 11.52,-56.75l12.45,-0.5l-1,7l3.25,-2.44c1.79,-1.34 4.83,-3.12 6.75,-3.96c1.92,-0.84 6.2,-1.54 9.5,-1.57zM1195,324.27c7.09,0.24 9.29,0.74 13.25,3.01c3.22,1.85 5.62,4.25 7.46,7.47c2.08,3.66 2.81,6.47 3.14,12.25c0.33,5.65 -0.07,9.23 -1.63,14.5c-1.32,4.49 -3.53,8.88 -6.14,12.25c-2.93,3.78 -5.83,6.11 -10.33,8.33c-5.28,2.6 -7.49,3.1 -14.25,3.21c-6.78,0.11 -8.88,-0.28 -13.75,-2.58c-3.47,-1.64 -6.62,-3.99 -7.95,-5.96c-1.21,-1.79 -2.79,-5.27 -3.51,-7.75c-0.72,-2.48 -1.31,-6.75 -1.31,-9.5c0,-2.75 0.72,-7.48 1.6,-10.5c0.88,-3.02 3.02,-7.71 4.76,-10.4c1.74,-2.7 4.96,-6.29 7.16,-7.98c2.2,-1.69 6.03,-3.88 8.5,-4.86c3.36,-1.33 6.65,-1.71 13,-1.49zM1184.25,336.83c-1.24,0.65 -3.35,2.64 -4.69,4.42c-1.34,1.79 -3.19,5.05 -4.11,7.25c-0.93,2.24 -1.7,6.86 -1.74,10.5c-0.05,4.25 0.51,7.63 1.61,9.75c1.02,1.99 3.14,3.88 5.43,4.86c2.46,1.05 5.12,1.41 7.75,1.02c2.2,-0.32 5.35,-1.53 7,-2.69c1.65,-1.16 4.01,-3.64 5.25,-5.52c1.24,-1.88 2.97,-6.23 3.85,-9.67c0.94,-3.65 1.35,-7.81 1,-10c-0.33,-2.06 -1.23,-4.99 -1.99,-6.5c-0.76,-1.51 -2.45,-3.28 -3.75,-3.92c-1.3,-0.64 -3.49,-1.37 -4.86,-1.62c-1.37,-0.25 -3.85,-0.14 -5.5,0.25c-1.65,0.38 -4.01,1.23 -5.25,1.87zM1408,324.07c3.62,-0.06 8.5,0.58 11,1.46c2.47,0.86 5.78,2.78 7.34,4.27c1.56,1.49 3.66,4.28 4.66,6.2c1,1.93 2.14,5.75 2.53,8.5c0.41,2.88 0.19,7.97 -0.5,12c-0.67,3.85 -2.24,9.02 -3.49,11.5c-1.25,2.48 -4.7,6.66 -7.66,9.3c-3.26,2.9 -7.36,5.43 -10.38,6.4c-2.75,0.88 -7.47,1.64 -10.5,1.69c-3.03,0.05 -7.08,-0.24 -9,-0.62c-1.92,-0.39 -5.41,-2.07 -7.75,-3.74c-2.78,-1.99 -5.11,-4.84 -6.74,-8.28c-1.98,-4.18 -2.49,-6.83 -2.5,-13c-0.01,-5.6 0.6,-9.35 2.19,-13.5c1.21,-3.16 3.59,-7.55 5.28,-9.75c1.7,-2.2 5.32,-5.49 8.05,-7.31c2.73,-1.82 6.32,-3.69 7.97,-4.16c1.65,-0.47 5.92,-0.9 9.5,-0.96zM1396.21,339.33c-1.81,1.75 -4.16,4.97 -5.23,7.17c-1.07,2.2 -2.21,6.7 -2.55,10c-0.4,3.9 -0.14,7.39 0.73,9.96c0.86,2.56 2.58,4.78 4.84,6.28c1.92,1.27 4.96,2.3 6.75,2.29c1.79,-0.02 4.49,-0.51 6,-1.09c1.51,-0.58 4.23,-2.5 6.03,-4.25c1.81,-1.75 4.17,-5.55 5.25,-8.44c1.19,-3.17 1.96,-7.72 1.96,-11.5c0,-4.49 -0.57,-7.17 -2,-9.5c-1.1,-1.79 -2.78,-3.64 -3.75,-4.11c-0.96,-0.47 -3.1,-1.09 -4.75,-1.37c-1.65,-0.28 -4.58,-0.08 -6.5,0.44c-1.92,0.52 -4.98,2.37 -6.79,4.12zM1481.75,324.04c2.89,-0.02 6.83,0.64 8.75,1.46c1.98,0.85 4.15,2.8 6.5,7.5l6.08,-4.25c5.46,-3.82 6.76,-4.28 12.75,-4.55c4.94,-0.22 7.57,0.17 10.14,1.5c1.91,0.99 4.34,3.38 5.42,5.3c1.18,2.12 1.92,5.28 1.88,8c-0.04,2.48 -1.5,11.93 -3.24,21c-1.74,9.07 -3.58,18.19 -5.03,24h-6.5c-3.58,0 -6.5,-0.34 -6.5,-0.75c0,-0.41 1.8,-9.19 4,-19.5c2.2,-10.31 4.02,-19.99 4.04,-21.5c0.02,-1.51 -0.76,-3.81 -1.75,-5.1c-1.44,-1.89 -2.68,-2.33 -6.29,-2.25c-2.87,0.06 -5.72,0.91 -7.88,2.35c-1.86,1.24 -4.2,3.6 -5.2,5.25c-1,1.65 -2.97,8.4 -4.38,15c-1.41,6.6 -3.23,15.26 -5.55,26.5h-6.5c-3.67,0 -6.5,-0.44 -6.5,-1c0,-0.55 1.8,-9.77 4,-20.5c2.2,-10.73 4.02,-20.29 4.04,-21.25c0.02,-0.96 -0.76,-2.82 -1.75,-4.14c-1.38,-1.83 -2.66,-2.36 -5.54,-2.25c-2.06,0.08 -4.99,0.77 -6.5,1.54c-1.51,0.77 -3.71,2.46 -4.88,3.75c-1.17,1.29 -2.86,3.81 -3.75,5.6c-0.89,1.79 -3.19,10.9 -5.12,20.25c-1.92,9.35 -3.5,17.23 -3.5,17.5c0,0.27 -2.92,0.5 -6.5,0.5c-6.09,0 -6.5,-0.14 -6.44,-2.25c0.04,-1.24 2.62,-14.4 11.44,-56.25l12.5,-0.5l-1,7l3.25,-2.44c1.79,-1.34 4.83,-3.12 6.75,-3.96c1.92,-0.84 5.86,-1.54 8.75,-1.56zM1581,324.06c3.18,-0.01 7.19,0.74 9.5,1.78c2.2,0.99 5.45,3.57 7.23,5.73c1.84,2.23 3.73,6.09 4.39,8.93c0.65,2.81 0.92,8.07 0.61,12c-0.3,3.85 -1.47,9.48 -2.58,12.5c-1.11,3.02 -4,7.75 -6.41,10.5c-2.41,2.75 -6.6,6.09 -9.31,7.41c-3.54,1.73 -6.63,2.42 -10.93,2.42c-3.3,0 -7.58,-0.49 -9.5,-1.11c-1.92,-0.61 -4.96,-2.72 -6.75,-4.67c-2.7,-2.95 -3.33,-3.26 -3.7,-1.81c-0.25,0.96 -1.6,7.26 -3,14c-1.4,6.74 -2.55,12.48 -2.55,12.75c0,0.27 -2.92,0.5 -6.5,0.5c-4.53,0 -6.5,-0.38 -6.5,-1.25c0,-0.69 3.39,-17.68 7.54,-37.75c4.15,-20.07 7.75,-37.51 8,-38.75c0.42,-2.06 1.02,-2.25 13.96,-2.3l-1.5,6.05l2.75,-1.92c1.51,-1.06 4.33,-2.61 6.25,-3.46c1.92,-0.85 5.97,-1.55 9,-1.56zM1568.25,336.83c-1.24,0.65 -3.37,2.64 -4.73,4.42c-1.37,1.79 -3.17,5.5 -4.01,8.25c-0.84,2.75 -1.52,7.7 -1.51,11c0.01,4.22 0.61,6.96 2.01,9.25c1.31,2.13 3.29,3.64 5.75,4.37c2.06,0.62 5.33,0.86 7.25,0.53c1.92,-0.33 5.08,-1.64 7,-2.92c2.04,-1.36 4.67,-4.6 6.32,-7.78c2.21,-4.28 2.86,-6.97 3,-12.45c0.11,-4.43 -0.37,-8.23 -1.32,-10.34c-0.83,-1.84 -2.4,-3.9 -3.5,-4.59c-1.1,-0.68 -3.35,-1.48 -5,-1.76c-1.65,-0.29 -4.35,-0.21 -6,0.17c-1.65,0.38 -4.01,1.21 -5.25,1.86zM1745.5,324.07c6.55,-0.02 10.09,0.47 13,1.77c2.2,0.99 5.03,3.12 6.28,4.73c1.54,1.97 2.27,4.24 2.24,6.93c-0.02,2.2 -1.39,10.52 -3.04,18.5c-1.65,7.98 -3,15.51 -2.99,16.75c0.01,1.84 0.51,2.21 2.76,2.04c1.51,-0.12 2.86,0.11 3,0.5c0.14,0.39 0.03,2.51 -0.25,4.71c-0.48,3.86 -0.66,4.03 -5.25,4.95c-2.61,0.52 -5.87,0.69 -7.25,0.36c-1.37,-0.33 -3.3,-1.32 -4.28,-2.2c-0.98,-0.88 -1.77,-2.17 -1.75,-2.86c0.02,-0.69 -0.42,-1.25 -0.97,-1.25c-0.55,0 -1.34,0.54 -1.75,1.2c-0.41,0.66 -2.78,2.08 -5.25,3.15c-2.89,1.25 -6.82,1.96 -11,1.98c-4.58,0.02 -7.68,-0.56 -10.5,-1.99c-2.2,-1.11 -5.05,-3.56 -6.34,-5.43c-1.95,-2.85 -2.28,-4.42 -2,-9.48c0.26,-4.73 0.94,-6.88 3.09,-9.75c1.51,-2.02 4.66,-4.63 7,-5.8c2.57,-1.28 7.8,-2.5 13.25,-3.09c4.95,-0.53 11.02,-1.27 13.49,-1.63c3.71,-0.55 4.72,-1.18 5.86,-3.66c0.75,-1.65 1.2,-4 1,-5.22c-0.21,-1.22 -1.49,-2.75 -2.86,-3.39c-1.36,-0.64 -4.51,-1.2 -6.98,-1.23c-2.47,-0.03 -6,0.59 -7.84,1.39c-1.84,0.8 -4.2,2.92 -5.25,4.7c-1.76,3 -2.31,3.25 -7.16,3.28c-2.89,0.02 -5.56,-0.32 -5.94,-0.75c-0.38,-0.43 -0.21,-2.13 0.39,-3.78c0.59,-1.65 2.09,-4.47 3.33,-6.27c1.24,-1.8 3.54,-4.04 5.11,-4.99c1.57,-0.94 4.43,-2.26 6.36,-2.94c1.92,-0.67 7.55,-1.23 12.5,-1.24zM1739.97,358.16c-4.66,0.52 -10,1.71 -11.87,2.65c-1.87,0.93 -3.81,2.82 -4.31,4.2c-0.5,1.38 -0.66,3.51 -0.35,4.75c0.34,1.38 2.02,2.88 4.31,3.86c2.53,1.09 5.13,1.41 8,1c2.34,-0.34 5.69,-1.62 7.44,-2.86c1.76,-1.24 3.95,-4.05 4.88,-6.25c0.93,-2.2 1.89,-5.24 2.15,-6.75c0.25,-1.51 0.16,-2.75 -0.21,-2.75c-0.37,0 -0.87,0.27 -1.12,0.6c-0.24,0.33 -4.26,1.03 -8.92,1.55zM1874.07,324.24c7.52,0.22 9.18,0.63 13.5,3.26c3.7,2.26 5.63,4.37 7.75,8.5c2.63,5.12 2.8,6.15 2.44,15c-0.29,7.12 -0.95,10.75 -2.64,14.5c-1.24,2.75 -3.81,6.91 -5.69,9.25c-2.29,2.83 -5.69,5.32 -10.18,7.47c-5.75,2.74 -7.86,3.22 -14.25,3.21c-6.02,-0.01 -8.59,-0.53 -13,-2.63c-3.73,-1.78 -6.38,-3.94 -8.25,-6.71c-1.51,-2.25 -3.27,-6.22 -3.9,-8.83c-0.68,-2.82 -0.88,-7.39 -0.5,-11.25c0.41,-4.05 1.78,-8.85 3.65,-12.75c1.68,-3.49 5.09,-8.27 7.75,-10.82c2.61,-2.51 7,-5.44 9.75,-6.51c3.82,-1.48 7.02,-1.87 13.57,-1.68zM1860.2,339.75c-2.18,2.16 -4.52,5.87 -5.51,8.75c-0.94,2.75 -1.71,7.81 -1.7,11.25c0.01,3.53 0.66,7.55 1.51,9.25c0.85,1.7 3.02,3.65 5,4.5c1.92,0.82 4.74,1.49 6.25,1.49c1.51,-0.01 4.55,-0.88 6.75,-1.93c2.23,-1.07 5.33,-3.8 7,-6.19c1.65,-2.35 3.56,-6.54 4.25,-9.32c0.69,-2.78 1.25,-6.51 1.25,-8.3c0,-1.79 -0.66,-4.94 -1.46,-7c-0.8,-2.06 -2.49,-4.47 -3.75,-5.34c-1.26,-0.88 -3.87,-1.82 -5.8,-2.11c-1.92,-0.28 -4.96,-0.13 -6.75,0.34c-1.79,0.47 -4.96,2.54 -7.05,4.61zM1946,324.08c3.38,-0.05 6.84,0.6 8.98,1.67c1.91,0.96 4.51,3.32 5.78,5.25c1.71,2.61 2.29,4.91 2.27,9c-0.02,3.02 -1.83,14.05 -4.04,24.5c-2.2,10.45 -4,19.11 -4,19.25c0,0.14 -2.92,0.25 -6.49,0.25c-4.53,0 -6.5,-0.38 -6.5,-1.25c0,-0.69 1.91,-10.39 4.25,-21.56c3.92,-18.73 4.14,-20.51 2.75,-22.95c-0.99,-1.74 -2.69,-2.88 -5,-3.33c-1.92,-0.38 -5.08,-0.24 -7,0.31c-1.92,0.55 -5.52,2.89 -8,5.22c-3.8,3.57 -4.68,5.14 -5.68,10.15c-0.65,3.26 -2.45,12.11 -6.82,33.44l-6.75,-0.01c-6.49,-0.01 -6.73,-0.1 -6.23,-2.26c0.29,-1.24 2.99,-14.18 6.01,-28.75c3.02,-14.57 5.49,-26.84 5.48,-27.25c-0.01,-0.41 2.8,-0.64 12.49,-0.25l-0.79,7l3.89,-3.14c2.14,-1.73 5.24,-3.6 6.89,-4.17c1.65,-0.57 5.47,-1.07 8.5,-1.11zM2003.5,324.08c4.4,-0.03 9.77,0.5 11.93,1.18c2.16,0.68 5.2,2.47 6.75,3.98c2.44,2.39 2.82,3.51 2.81,8.5c0,3.16 -1.38,12.27 -3.06,20.25c-1.68,7.98 -2.8,15.06 -2.5,15.75c0.35,0.78 1.7,1.06 3.56,0.75c2,-0.33 3,-0.08 2.99,0.75c0,0.69 -0.45,2.94 -1,5c-0.75,2.82 -1.61,3.87 -3.49,4.25c-1.37,0.27 -3.62,0.73 -5,1c-1.37,0.27 -3.74,0.06 -5.25,-0.48c-1.51,-0.54 -3.42,-2.09 -5.75,-5.93l-4,2.42c-2.2,1.33 -6.36,2.89 -9.25,3.45c-2.96,0.58 -7.1,0.7 -9.5,0.26c-2.34,-0.43 -5.91,-1.89 -7.94,-3.25c-2.03,-1.36 -4.39,-3.94 -5.25,-5.73c-0.86,-1.79 -1.55,-4.49 -1.55,-6c0,-1.51 0.45,-4.44 1,-6.5c0.57,-2.13 2.61,-5.28 4.74,-7.31c2.26,-2.14 5.74,-4.13 8.75,-4.98c2.75,-0.78 9.72,-1.85 15.5,-2.39c9.14,-0.84 10.73,-1.27 12.29,-3.27c0.99,-1.27 1.77,-3.54 1.75,-5.05c-0.03,-1.86 -0.92,-3.32 -2.74,-4.5c-1.88,-1.22 -4.38,-1.69 -8.25,-1.55c-3.63,0.13 -6.41,0.86 -8.05,2.09c-1.37,1.04 -3.06,3.08 -3.75,4.55c-1.15,2.45 -1.73,2.66 -7.25,2.66c-5.05,0 -6,-0.28 -5.99,-1.75c0.01,-0.96 1.02,-3.75 2.25,-6.18c1.23,-2.44 3.59,-5.47 5.24,-6.74c1.65,-1.27 5.03,-2.95 7.5,-3.75c2.47,-0.79 8.1,-1.47 12.5,-1.49zM1996,358.41c-4.29,0.39 -7.69,1.37 -10,2.87c-2.74,1.78 -3.56,3.04 -3.78,5.75c-0.18,2.28 0.33,4.08 1.5,5.25c0.98,0.98 3.13,2.04 4.78,2.36c1.65,0.32 4.69,0.3 6.75,-0.03c2.21,-0.36 5.21,-1.94 7.31,-3.86c2.28,-2.08 4.11,-5.05 5.08,-8.25c0.84,-2.75 1.33,-5.26 1.09,-5.58c-0.24,-0.32 -1.74,-0.25 -3.33,0.16c-1.59,0.41 -5.82,1 -9.39,1.33zM2231,324.02c5.38,0.02 8.77,0.6 12,2.06c2.47,1.12 5.56,3.02 6.85,4.23c1.29,1.2 2.98,3.43 3.75,4.94c0.77,1.51 1.87,5.11 2.44,8c0.72,3.69 0.7,7.33 -0.07,12.25c-0.61,3.85 -2.16,9.25 -3.44,12c-1.36,2.91 -4.57,7.01 -7.68,9.8c-3.19,2.87 -7.35,5.46 -10.34,6.45c-2.82,0.93 -8.05,1.62 -12,1.59c-4.23,-0.03 -8.58,-0.72 -11,-1.75c-2.2,-0.93 -5.28,-2.91 -6.84,-4.39c-1.56,-1.48 -3.53,-4.05 -4.37,-5.7c-0.84,-1.65 -1.92,-5.48 -2.4,-8.5c-0.55,-3.48 -0.48,-7.71 0.2,-11.5c0.59,-3.3 1.85,-7.8 2.79,-10c0.95,-2.2 3.73,-6.21 6.17,-8.9c2.71,-2.98 6.8,-6.02 10.45,-7.75c4.96,-2.36 7.3,-2.84 13.5,-2.83zM2220.86,337.55c-1.45,1.07 -3.59,3.3 -4.74,4.95c-1.15,1.65 -2.78,5.25 -3.62,8c-0.84,2.75 -1.52,7.25 -1.53,10c-0.01,3.58 0.65,6 2.31,8.5c1.28,1.93 3.43,4.08 4.78,4.79c1.5,0.79 4.4,1.11 7.46,0.82c3.55,-0.34 5.98,-1.29 8.37,-3.29c1.85,-1.55 4.44,-4.84 5.76,-7.32c1.54,-2.89 2.61,-7 3,-11.5c0.46,-5.31 0.22,-7.91 -1.01,-10.75c-0.89,-2.06 -2.63,-4.37 -3.87,-5.13c-1.24,-0.76 -3.6,-1.59 -5.25,-1.86c-1.65,-0.26 -4.35,-0.18 -6,0.18c-1.65,0.36 -4.19,1.54 -5.64,2.61zM2294.5,324.34c6.03,0.19 10.07,0.84 12.25,1.97c1.79,0.93 4.38,3.38 5.75,5.44c1.57,2.34 2.5,5.16 2.5,11.25h-6c-5.78,0 -6.04,-0.11 -7,-3c-0.55,-1.65 -1.9,-3.45 -3,-4c-1.1,-0.55 -4.14,-1.1 -6.75,-1.21c-3.06,-0.14 -5.73,0.4 -7.5,1.5c-2.01,1.25 -2.75,2.52 -2.75,4.71c0,2.1 0.67,3.35 2.25,4.16c1.24,0.64 5.4,2.23 9.25,3.54c3.85,1.31 8.91,3.49 11.25,4.84c2.34,1.35 4.93,3.81 5.75,5.46c0.82,1.65 1.5,5.02 1.5,7.5c0,2.48 -0.63,5.74 -1.4,7.25c-0.77,1.51 -2.46,3.74 -3.75,4.94c-1.29,1.21 -4.6,3.19 -7.35,4.41c-3.89,1.73 -6.89,2.22 -13.5,2.22c-6.26,0 -9.69,-0.52 -13,-1.97c-2.64,-1.15 -5.73,-3.6 -7.46,-5.91c-1.75,-2.33 -3.18,-5.69 -4.04,-12.47l6.25,0.01c6.18,0.01 6.26,0.05 7.24,3.26c0.55,1.79 1.9,3.81 3,4.5c1.1,0.69 4.14,1.53 6.76,1.86c3.31,0.43 5.88,0.13 8.5,-1c2.06,-0.89 4.26,-2.63 4.88,-3.86c0.62,-1.24 0.84,-3.04 0.5,-4c-0.34,-0.96 -2.09,-2.64 -3.88,-3.73c-1.79,-1.09 -6.18,-2.87 -9.75,-3.94c-3.57,-1.08 -8.07,-3 -10,-4.28c-1.93,-1.28 -4.35,-4.11 -5.38,-6.31c-1.38,-2.92 -1.71,-5.12 -1.25,-8.24c0.38,-2.52 1.75,-5.52 3.38,-7.38c1.51,-1.72 4.01,-3.82 5.56,-4.65c1.54,-0.83 4.02,-1.89 5.5,-2.34c1.48,-0.45 6.74,-0.69 11.69,-0.54zM2353.5,324.08c5.28,-0.05 8.23,0.5 12,2.24c3,1.38 6.19,3.88 7.96,6.24c1.75,2.33 3.18,5.69 4.04,12.47l-6.5,0c-6.43,0 -6.51,-0.04 -7.5,-3.18c-0.55,-1.75 -2.27,-4.12 -3.82,-5.26c-2.06,-1.52 -4.09,-2.02 -7.5,-1.87c-3.09,0.14 -5.95,1.07 -8.43,2.75c-2.5,1.69 -4.65,4.45 -6.44,8.29c-1.74,3.71 -2.85,8.05 -3.14,12.25c-0.35,5.03 -0.02,7.36 1.44,10.31c1.21,2.44 3.15,4.37 5.39,5.38c2.3,1.03 4.88,1.37 7.5,0.98c2.2,-0.32 5.13,-1.43 6.5,-2.46c1.38,-1.03 3.4,-3.52 4.5,-5.54c1.97,-3.62 2.08,-3.67 14.5,-3.67l-0.57,2.75c-0.31,1.51 -1.66,4.66 -3,7c-1.34,2.34 -3.89,5.34 -5.68,6.68c-1.79,1.34 -4.6,2.95 -6.25,3.58c-1.65,0.64 -5.7,1.59 -9,2.11c-3.94,0.63 -7.72,0.61 -11,-0.06c-3.4,-0.69 -6.44,-2.25 -9.5,-4.86c-2.53,-2.17 -5.32,-5.78 -6.38,-8.27c-1.23,-2.89 -1.89,-6.86 -1.91,-11.43c-0.01,-3.85 0.7,-9.48 1.58,-12.5c0.88,-3.02 3.09,-7.61 4.91,-10.19c1.81,-2.58 5.1,-6.04 7.3,-7.69c2.2,-1.65 5.8,-3.67 8,-4.49c2.2,-0.82 7.15,-1.52 11,-1.55zM2442.5,324.05c5.86,-0.09 7.89,0.35 12.5,2.73c4.08,2.11 6.27,4.09 8.5,7.71c2.7,4.38 3.03,5.82 3.5,23.52h-44v3c0,1.65 0.61,4.46 1.36,6.25c0.75,1.79 2.21,4.03 3.25,4.99c1.04,0.95 4.14,2.02 6.89,2.36c3.55,0.45 6.09,0.16 8.75,-0.99c2.26,-0.97 4.55,-3.01 5.75,-5.11c1.94,-3.39 2.19,-3.5 8,-3.5c3.3,0 6.18,0.34 6.41,0.75c0.22,0.41 -0.47,2.55 -1.54,4.75c-1.07,2.2 -3.39,5.47 -5.16,7.26c-1.77,1.79 -5.46,4.22 -8.21,5.38c-3.62,1.54 -7.07,2.12 -12.5,2.11c-4.45,-0.01 -8.92,-0.63 -11,-1.52c-1.93,-0.83 -5.02,-2.8 -6.89,-4.37c-1.86,-1.57 -4.34,-4.66 -5.5,-6.86c-1.72,-3.26 -2.11,-5.76 -2.11,-13.52c0,-8.64 0.29,-10.12 3.15,-16c2.08,-4.27 4.97,-8.11 8.5,-11.28c2.94,-2.64 7.15,-5.42 9.35,-6.17c2.2,-0.75 7.15,-1.42 11,-1.48zM2432,337.8c-1.37,1.04 -3.51,3.65 -4.73,5.8c-1.23,2.15 -2.24,4.24 -2.25,4.66c-0.01,0.41 6.51,0.75 14.48,0.75h14.5c0,-4.65 -0.68,-7.35 -1.5,-9c-0.82,-1.65 -2.29,-3.39 -3.25,-3.86c-0.96,-0.47 -3.1,-1.08 -4.75,-1.36c-1.65,-0.27 -4.57,-0.13 -6.5,0.31c-1.93,0.45 -4.62,1.66 -6,2.7zM2513,324.08c3.4,-0.05 6.81,0.59 8.93,1.67c1.89,0.96 4.36,3.03 5.5,4.59c1.27,1.74 2.21,4.83 2.43,8c0.24,3.41 -1.03,11.77 -3.74,24.66c-2.26,10.73 -4.1,19.84 -4.11,20.25c0,0.41 -2.93,0.75 -6.51,0.75c-5.52,0 -6.5,-0.26 -6.51,-1.75c-0.01,-0.96 1.79,-10.41 4,-21c2.66,-12.76 3.76,-20.14 3.26,-21.88c-0.41,-1.45 -1.65,-3.08 -2.75,-3.64c-1.1,-0.55 -3.57,-0.99 -5.5,-0.98c-1.93,0.01 -4.62,0.58 -6,1.26c-1.37,0.68 -3.78,2.42 -5.34,3.86c-1.56,1.45 -3.54,3.98 -4.39,5.63c-0.86,1.65 -3.18,10.88 -8.77,38l-6.75,0.25c-6.52,0.24 -6.73,0.17 -6.29,-2c0.25,-1.24 2.95,-14.4 6.01,-29.25c3.05,-14.85 5.55,-27.11 5.54,-27.25c0,-0.14 2.8,-0.26 12.49,-0.28l-1.5,8.03l3.95,-3.25c2.17,-1.79 5.44,-3.78 7.25,-4.42c1.81,-0.65 5.77,-1.21 8.8,-1.25zM2569.5,324.06c3.3,-0.03 7.57,0.38 9.5,0.91c1.93,0.52 5.07,1.99 7,3.25c1.93,1.26 4.52,4.32 5.76,6.79c1.24,2.47 2.25,5.73 2.25,7.24c-0.01,2.7 -0.12,2.75 -6.26,2.78c-6.15,0.03 -6.27,-0.03 -7.25,-3.14c-0.55,-1.74 -2.27,-4.12 -3.82,-5.28c-1.92,-1.44 -4.15,-2.07 -7,-1.98c-2.3,0.07 -5.64,0.86 -7.43,1.75c-1.79,0.89 -4.61,3.76 -6.28,6.37c-1.67,2.61 -3.46,6.32 -3.99,8.25c-0.53,1.93 -0.97,5.86 -0.97,8.75c0,2.89 0.67,6.82 1.49,8.75c1.03,2.41 2.67,4 5.25,5.11c2.43,1.04 5.16,1.41 7.75,1.04c2.2,-0.31 5.07,-1.37 6.39,-2.36c1.31,-0.98 3.23,-3.48 4.25,-5.54c1.84,-3.71 1.93,-3.75 7.86,-3.75c3.3,0 6.22,0.45 6.5,1c0.28,0.55 -0.51,3.13 -1.75,5.74c-1.24,2.61 -3.61,6.09 -5.26,7.75c-1.66,1.66 -4.81,3.86 -7,4.9c-2.19,1.04 -6.8,2.27 -10.24,2.75c-3.97,0.55 -7.99,0.48 -11,-0.19c-2.61,-0.58 -6.47,-2.27 -8.58,-3.75c-2.33,-1.64 -4.76,-4.65 -6.19,-7.7c-1.3,-2.75 -2.65,-7.02 -3,-9.5c-0.35,-2.48 -0.14,-7.2 0.47,-10.5c0.61,-3.3 2.23,-8.36 3.59,-11.25c1.36,-2.89 4.61,-7.31 7.22,-9.82c2.66,-2.56 6.96,-5.4 9.75,-6.45c2.76,-1.04 7.69,-1.9 11,-1.92zM2632.5,324.1c4.76,-0.04 8.28,0.53 11,1.77c2.2,1 5.47,3.36 7.27,5.23c1.8,1.87 3.94,5.43 4.76,7.9c0.82,2.48 1.49,7.76 1.47,19h-44v3.5c0,1.93 0.79,5.07 1.75,7c0.96,1.92 2.83,4.06 4.15,4.75c1.32,0.69 4.74,1.25 7.6,1.25c2.86,0 6.43,-0.68 7.94,-1.5c1.51,-0.82 3.6,-2.96 4.65,-4.75c1.82,-3.09 2.2,-3.25 7.91,-3.25c4.67,0 6,0.33 6,1.5c0,0.82 -0.73,2.96 -1.61,4.75c-0.89,1.79 -2.8,4.53 -4.25,6.09c-1.45,1.56 -4.44,3.75 -6.64,4.87c-2.2,1.12 -6.7,2.44 -10,2.95c-4.18,0.64 -7.67,0.55 -11.5,-0.29c-3.15,-0.7 -7.21,-2.53 -9.5,-4.3c-2.23,-1.72 -5.25,-5.51 -6.83,-8.58c-2.59,-5.02 -2.79,-6.22 -2.44,-13.99c0.31,-6.74 1,-9.83 3.33,-14.91c1.9,-4.15 4.7,-8.04 7.94,-11.03c2.75,-2.54 7.03,-5.36 9.5,-6.26c2.47,-0.9 7.65,-1.66 11.5,-1.7zM2622,337.8c-1.37,1.04 -3.51,3.65 -4.73,5.8c-1.23,2.15 -2.24,4.24 -2.25,4.66c-0.01,0.41 6.51,0.75 14.48,0.75h14.5c0,-3.87 -0.65,-6.46 -1.45,-8.25c-0.8,-1.79 -2.71,-3.78 -4.25,-4.43c-1.54,-0.65 -3.7,-1.39 -4.8,-1.64c-1.1,-0.25 -3.57,-0.08 -5.5,0.38c-1.93,0.46 -4.62,1.69 -6,2.73zM819.5,325c4.51,0 6.51,0.38 6.54,1.25c0.02,0.69 -2.57,13.96 -11.54,57.76l-6.75,0c-5.93,0 -6.7,-0.22 -6.31,-1.75c0.24,-0.96 2.94,-13.9 6,-28.75c3.05,-14.85 5.56,-27.34 5.56,-27.75c0,-0.41 2.93,-0.75 6.5,-0.75zM840.67,325c6.13,0 6.35,0.09 6.79,2.75c0.25,1.51 1.21,9.95 2.14,18.75c0.93,8.8 1.96,16.84 2.3,17.86c0.44,1.34 3.69,-3.92 22.61,-39.38l6.25,0.01c3.44,0 6.43,0.35 6.65,0.76c0.22,0.41 -6.71,13.57 -31.21,57.75l-7.59,0.25c-5.53,0.18 -7.6,-0.09 -7.63,-1c-0.02,-0.69 -1.84,-13.74 -4.05,-29.02c-2.21,-15.27 -3.7,-27.98 -3.3,-28.25c0.4,-0.27 3.57,-0.48 7.05,-0.48zM903.48,325c6.25,0 6.5,0.09 6.02,2.25c-0.28,1.24 -2.97,14.18 -5.99,28.75c-3.01,14.57 -5.49,26.84 -5.49,27.25c-0.01,0.41 -2.94,0.75 -6.51,0.75c-5.53,0 -6.5,-0.26 -6.49,-1.75c0.01,-0.96 2.49,-13.68 5.51,-28.25c3.02,-14.57 5.71,-27.06 5.96,-27.75c0.31,-0.82 2.68,-1.25 6.99,-1.25zM986.55,325c3.55,0 6.44,0.34 6.43,0.75c-0.01,0.41 -2.48,12.68 -5.49,27.25c-3.01,14.57 -5.71,27.51 -5.99,28.75c-0.46,2.05 -1.08,2.25 -7.01,2.25c-3.67,0 -6.5,-0.44 -6.5,-1c0,-0.55 2.48,-13.04 5.52,-27.75c3.04,-14.71 5.76,-27.54 6.05,-28.5c0.44,-1.43 1.71,-1.75 6.98,-1.75zM1625.5,325c5.11,0 6.5,0.32 6.5,1.5c0,0.82 -1.8,10.16 -4.01,20.75c-2.21,10.59 -4.01,20.26 -4,21.5c0.01,1.29 1.19,3.12 2.76,4.28c1.51,1.12 3.99,2.02 5.5,2c1.51,-0.02 4.21,-0.63 6,-1.36c1.79,-0.73 4.94,-3.32 7,-5.75c2.5,-2.95 4.25,-6.41 5.27,-10.42c0.84,-3.3 2.76,-11.85 7.01,-32l6.73,-0.25c5.98,-0.22 6.69,-0.05 6.3,1.5c-0.24,0.96 -3.05,14.24 -12.07,57.28l-12.5,-0.03l1.27,-7.5l-2.89,2.7c-1.59,1.48 -4.69,3.46 -6.89,4.4c-2.25,0.96 -6.62,1.72 -10,1.73c-4.13,0.01 -7.09,-0.59 -9.5,-1.94c-1.92,-1.08 -4.29,-3.52 -5.25,-5.42c-1.03,-2.05 -1.75,-5.71 -1.75,-8.97c0,-3.02 1.8,-13.94 4,-24.25c2.2,-10.31 4,-18.98 4,-19.25c0,-0.27 2.92,-0.5 6.5,-0.5zM1828.48,325c6.25,0 6.5,0.09 6.01,2.25c-0.29,1.24 -2.99,14.18 -6.01,28.75c-3.02,14.57 -5.49,26.84 -5.48,27.25c0.01,0.41 -2.91,0.75 -6.49,0.75c-5.52,0 -6.5,-0.26 -6.51,-1.75c-0.01,-0.96 2.47,-13.68 5.5,-28.25c3.03,-14.57 5.72,-27.06 5.99,-27.75c0.31,-0.82 2.7,-1.25 7,-1.25zM2186.55,325c3.55,0 6.44,0.34 6.43,0.75c-0.01,0.41 -2.51,12.9 -5.56,27.75c-3.05,14.85 -5.75,27.79 -5.99,28.75c-0.36,1.44 -1.58,1.75 -6.94,1.75c-3.57,0 -6.5,-0.34 -6.51,-0.75c0,-0.41 2.48,-12.9 5.53,-27.75c3.04,-14.85 5.77,-27.79 6.06,-28.75c0.43,-1.43 1.7,-1.75 6.97,-1.75zM2398.73,324.97c3.18,-0.02 6.08,0.32 6.45,0.75c0.37,0.43 -0.59,6.63 -2.14,13.78c-1.55,7.15 -4.33,20.1 -9.54,44.54l-6.25,-0.02c-5.27,-0.02 -6.25,-0.29 -6.26,-1.77c-0.01,-0.96 2.47,-13.68 5.51,-28.25c3.04,-14.57 5.73,-27.06 5.99,-27.75c0.3,-0.8 2.56,-1.26 6.24,-1.28z" />
	</g>
</svg>